<?xml version="1.0" encoding="UTF-8" standalone="no"?>
<!-- Created with Inkscape (http://www.inkscape.org/) -->

<svg
   xmlns:dc="http://purl.org/dc/elements/1.1/"
   xmlns:cc="http://creativecommons.org/ns#"
   xmlns:rdf="http://www.w3.org/1999/02/22-rdf-syntax-ns#"
   xmlns:svg="http://www.w3.org/2000/svg"
   xmlns="http://www.w3.org/2000/svg"
   xmlns:sodipodi="http://sodipodi.sourceforge.net/DTD/sodipodi-0.dtd"
   xmlns:inkscape="http://www.inkscape.org/namespaces/inkscape"
   id="svg2985"
   version="1.1"
   inkscape:version="0.48.3.1 r9886"
   width="1482.46"
   height="468.39075"
   xml:space="preserve"
   sodipodi:docname="train-graph.svg"><metadata
     id="metadata2991"><rdf:RDF><cc:Work
         rdf:about=""><dc:format>image/svg+xml</dc:format><dc:type
           rdf:resource="http://purl.org/dc/dcmitype/StillImage" /></cc:Work></rdf:RDF></metadata><defs
     id="defs2989"><clipPath
       clipPathUnits="userSpaceOnUse"
       id="clipPath3001"><path
         d="m 0,841.89 595.445,0 L 595.445,0 0,0 0,841.89 z"
         id="path3003"
         inkscape:connector-curvature="0" /></clipPath><linearGradient
       x1="0"
       y1="0"
       x2="1"
       y2="0"
       gradientUnits="userSpaceOnUse"
       gradientTransform="matrix(-9e-7,-19.7887,-19.7887,9e-7,410.33398,392.08789)"
       spreadMethod="pad"
       id="linearGradient4987"><stop
         style="stop-opacity:1;stop-color:#9dada8"
         offset="0"
         id="stop4989" /><stop
         style="stop-opacity:1;stop-color:#829896"
         offset="1"
         id="stop4991" /></linearGradient><clipPath
       clipPathUnits="userSpaceOnUse"
       id="clipPath4999"><path
         d="m 0,841.89 595.445,0 L 595.445,0 0,0 0,841.89 z"
         id="path5001"
         inkscape:connector-curvature="0" /></clipPath></defs><sodipodi:namedview
     pagecolor="#ffffff"
     bordercolor="#666666"
     borderopacity="1"
     objecttolerance="10"
     gridtolerance="10"
     guidetolerance="10"
     inkscape:pageopacity="0"
     inkscape:pageshadow="2"
     inkscape:window-width="1920"
     inkscape:window-height="1150"
     id="namedview2987"
     showgrid="false"
     inkscape:zoom="1"
     inkscape:cx="653.06363"
     inkscape:cy="190.39332"
     inkscape:window-x="0"
     inkscape:window-y="26"
     inkscape:window-maximized="1"
     inkscape:current-layer="g2993"
     fit-margin-top="30"
     fit-margin-left="30"
     fit-margin-right="30"
     fit-margin-bottom="30" /><g
     id="g2993"
     inkscape:groupmode="layer"
     inkscape:label="vectorstock_1472172"
     transform="matrix(1.25,0,0,-1.25,372.16154,1226.1501)"><g
   transform="matrix(2,0,0,2,-272.98723,867.00903)"
   id="g3005"><path
     inkscape:connector-curvature="0"
     id="path3007"
     style="fill:#d3d2d2;fill-opacity:1;fill-rule:nonzero;stroke:none"
     d="m 0,0 c -0.205,0 -0.371,0.167 -0.371,0.371 0,0.205 0.166,0.371 0.371,0.371 l 568.242,0 c 0.205,0 0.371,-0.166 0.371,-0.371 C 568.613,0.167 568.447,0 568.242,0 L 0,0 z m 0,-11.664 c -0.205,0 -0.371,0.166 -0.371,0.371 0,0.204 0.166,0.371 0.371,0.371 l 568.242,0 c 0.205,0 0.371,-0.167 0.371,-0.371 0,-0.205 -0.166,-0.371 -0.371,-0.371 L 0,-11.664 z m 0,-11.665 c -0.205,0 -0.371,0.166 -0.371,0.371 0,0.205 0.166,0.371 0.371,0.371 l 568.242,0 c 0.205,0 0.371,-0.166 0.371,-0.371 0,-0.205 -0.166,-0.371 -0.371,-0.371 L 0,-23.329 z m 0,-11.664 c -0.205,0 -0.371,0.166 -0.371,0.371 0,0.204 0.166,0.371 0.371,0.371 l 568.242,0 c 0.205,0 0.371,-0.167 0.371,-0.371 0,-0.205 -0.166,-0.371 -0.371,-0.371 L 0,-34.993 z m 0,-11.664 c -0.205,0 -0.371,0.166 -0.371,0.37 0,0.205 0.166,0.371 0.371,0.371 l 568.242,0 c 0.205,0 0.371,-0.166 0.371,-0.371 0,-0.204 -0.166,-0.37 -0.371,-0.37 L 0,-46.657 z m 0,-11.665 c -0.205,0 -0.371,0.166 -0.371,0.371 0,0.204 0.166,0.37 0.371,0.37 l 568.242,0 c 0.205,0 0.371,-0.166 0.371,-0.37 0,-0.205 -0.166,-0.371 -0.371,-0.371 L 0,-58.322 z" /></g><path
   d="m -113.13083,876.68943 -1.484,0 0,2.882 1.484,0 0,-2.882 z m 0,-7.206 -1.484,0 0,2.882 1.484,0 0,-2.882 z m 0,-7.202 -1.484,0 0,2.88 1.484,0 0,-2.88 z m 0,-7.206 -1.484,0 0,2.88 1.484,0 0,-2.88 z m 0,-7.206 -1.484,0 0,2.882 1.484,0 0,-2.882 z m 0,-7.204 -1.484,0 0,2.882 1.484,0 0,-2.882 z m 0,-7.204 -1.484,0 0,2.88 1.484,0 0,-2.88 z m 0,-7.204 -1.484,0 0,2.88 1.484,0 0,-2.88 z m 0,-7.206 -1.484,0 0,2.88 1.484,0 0,-2.88 z m 0,-7.204 -1.484,0 0,2.882 1.484,0 0,-2.882 z m 0,-7.206 -1.484,0 0,2.882 1.484,0 0,-2.882 z m 0,-7.204 -1.484,0 0,2.882 1.484,0 0,-2.882 z m 0,-7.206 -1.484,0 0,2.882 1.484,0 0,-2.882 z m 0,-7.204 -1.484,0 0,2.882 1.484,0 0,-2.882 z m 0,-7.204 -1.484,0 0,2.88 1.484,0 0,-2.88 z m 0,-7.206 -1.484,0 0,2.88 1.484,0 0,-2.88 z m 0,-7.204 -1.484,0 0,2.882 1.484,0 0,-2.882 z m 0,-7.206 -1.484,0 0,2.882 1.484,0 0,-2.882 z m 118.307982,122.482 -1.484,0 0,2.882 1.484,0 0,-2.882 z m 0,-7.206 -1.484,0 0,2.882 1.484,0 0,-2.882 z m 0,-7.202 -1.484,0 0,2.88 1.484,0 0,-2.88 z m 0,-7.206 -1.484,0 0,2.88 1.484,0 0,-2.88 z m 0,-7.206 -1.484,0 0,2.882 1.484,0 0,-2.882 z m 0,-7.204 -1.484,0 0,2.882 1.484,0 0,-2.882 z m 0,-7.204 -1.484,0 0,2.88 1.484,0 0,-2.88 z m 0,-7.204 -1.484,0 0,2.88 1.484,0 0,-2.88 z m 0,-7.206 -1.484,0 0,2.88 1.484,0 0,-2.88 z m 0,-7.204 -1.484,0 0,2.882 1.484,0 0,-2.882 z m 0,-7.206 -1.484,0 0,2.882 1.484,0 0,-2.882 z m 0,-7.204 -1.484,0 0,2.882 1.484,0 0,-2.882 z m 0,-7.206 -1.484,0 0,2.882 1.484,0 0,-2.882 z m 0,-7.204 -1.484,0 0,2.882 1.484,0 0,-2.882 z m 0,-7.204 -1.484,0 0,2.88 1.484,0 0,-2.88 z m 0,-7.206 -1.484,0 0,2.88 1.484,0 0,-2.88 z m 0,-7.204 -1.484,0 0,2.882 1.484,0 0,-2.882 z m 0,-7.206 -1.484,0 0,2.882 1.484,0 0,-2.882 z m 118.309998,122.482 -1.484,0 0,2.882 1.484,0 0,-2.882 z m 0,-7.206 -1.484,0 0,2.882 1.484,0 0,-2.882 z m 0,-7.202 -1.484,0 0,2.88 1.484,0 0,-2.88 z m 0,-7.206 -1.484,0 0,2.88 1.484,0 0,-2.88 z m 0,-7.206 -1.484,0 0,2.882 1.484,0 0,-2.882 z m 0,-7.204 -1.484,0 0,2.882 1.484,0 0,-2.882 z m 0,-7.204 -1.484,0 0,2.88 1.484,0 0,-2.88 z m 0,-7.204 -1.484,0 0,2.88 1.484,0 0,-2.88 z m 0,-7.206 -1.484,0 0,2.88 1.484,0 0,-2.88 z m 0,-7.204 -1.484,0 0,2.882 1.484,0 0,-2.882 z m 0,-7.206 -1.484,0 0,2.882 1.484,0 0,-2.882 z m 0,-7.204 -1.484,0 0,2.882 1.484,0 0,-2.882 z m 0,-7.206 -1.484,0 0,2.882 1.484,0 0,-2.882 z m 0,-7.204 -1.484,0 0,2.882 1.484,0 0,-2.882 z m 0,-7.204 -1.484,0 0,2.88 1.484,0 0,-2.88 z m 0,-7.206 -1.484,0 0,2.88 1.484,0 0,-2.88 z m 0,-7.204 -1.484,0 0,2.882 1.484,0 0,-2.882 z m 0,-7.206 -1.484,0 0,2.882 1.484,0 0,-2.882 z m 118.31,122.482 -1.484,0 0,2.882 1.484,0 0,-2.882 z m 0,-7.206 -1.484,0 0,2.882 1.484,0 0,-2.882 z m 0,-7.202 -1.484,0 0,2.88 1.484,0 0,-2.88 z m 0,-7.206 -1.484,0 0,2.88 1.484,0 0,-2.88 z m 0,-7.206 -1.484,0 0,2.882 1.484,0 0,-2.882 z m 0,-7.204 -1.484,0 0,2.882 1.484,0 0,-2.882 z m 0,-7.204 -1.484,0 0,2.88 1.484,0 0,-2.88 z m 0,-7.204 -1.484,0 0,2.88 1.484,0 0,-2.88 z m 0,-7.206 -1.484,0 0,2.88 1.484,0 0,-2.88 z m 0,-7.204 -1.484,0 0,2.882 1.484,0 0,-2.882 z m 0,-7.206 -1.484,0 0,2.882 1.484,0 0,-2.882 z m 0,-7.204 -1.484,0 0,2.882 1.484,0 0,-2.882 z m 0,-7.206 -1.484,0 0,2.882 1.484,0 0,-2.882 z m 0,-7.204 -1.484,0 0,2.882 1.484,0 0,-2.882 z m 0,-7.204 -1.484,0 0,2.88 1.484,0 0,-2.88 z m 0,-7.206 -1.484,0 0,2.88 1.484,0 0,-2.88 z m 0,-7.204 -1.484,0 0,2.882 1.484,0 0,-2.882 z m 0,-7.206 -1.484,0 0,2.882 1.484,0 0,-2.882 z m 118.31,122.482 -1.484,0 0,2.882 1.484,0 0,-2.882 z m 0,-7.206 -1.484,0 0,2.882 1.484,0 0,-2.882 z m 0,-7.202 -1.484,0 0,2.88 1.484,0 0,-2.88 z m 0,-7.206 -1.484,0 0,2.88 1.484,0 0,-2.88 z m 0,-7.206 -1.484,0 0,2.882 1.484,0 0,-2.882 z m 0,-7.204 -1.484,0 0,2.882 1.484,0 0,-2.882 z m 0,-7.204 -1.484,0 0,2.88 1.484,0 0,-2.88 z m 0,-7.204 -1.484,0 0,2.88 1.484,0 0,-2.88 z m 0,-7.206 -1.484,0 0,2.88 1.484,0 0,-2.88 z m 0,-7.204 -1.484,0 0,2.882 1.484,0 0,-2.882 z m 0,-7.206 -1.484,0 0,2.882 1.484,0 0,-2.882 z m 0,-7.204 -1.484,0 0,2.882 1.484,0 0,-2.882 z m 0,-7.206 -1.484,0 0,2.882 1.484,0 0,-2.882 z m 0,-7.204 -1.484,0 0,2.882 1.484,0 0,-2.882 z m 0,-7.204 -1.484,0 0,2.88 1.484,0 0,-2.88 z m 0,-7.206 -1.484,0 0,2.88 1.484,0 0,-2.88 z m 0,-7.204 -1.484,0 0,2.882 1.484,0 0,-2.882 z m 0,-7.206 -1.484,0 0,2.882 1.484,0 0,-2.882 z m 118.31,122.482 -1.484,0 0,2.882 1.484,0 0,-2.882 z m 0,-7.206 -1.484,0 0,2.882 1.484,0 0,-2.882 z m 0,-7.202 -1.484,0 0,2.88 1.484,0 0,-2.88 z m 0,-7.206 -1.484,0 0,2.88 1.484,0 0,-2.88 z m 0,-7.206 -1.484,0 0,2.882 1.484,0 0,-2.882 z m 0,-7.204 -1.484,0 0,2.882 1.484,0 0,-2.882 z m 0,-7.204 -1.484,0 0,2.88 1.484,0 0,-2.88 z m 0,-7.204 -1.484,0 0,2.88 1.484,0 0,-2.88 z m 0,-7.206 -1.484,0 0,2.88 1.484,0 0,-2.88 z m 0,-7.204 -1.484,0 0,2.882 1.484,0 0,-2.882 z m 0,-7.206 -1.484,0 0,2.882 1.484,0 0,-2.882 z m 0,-7.204 -1.484,0 0,2.882 1.484,0 0,-2.882 z m 0,-7.206 -1.484,0 0,2.882 1.484,0 0,-2.882 z m 0,-7.204 -1.484,0 0,2.882 1.484,0 0,-2.882 z m 0,-7.204 -1.484,0 0,2.88 1.484,0 0,-2.88 z m 0,-7.206 -1.484,0 0,2.88 1.484,0 0,-2.88 z m 0,-7.204 -1.484,0 0,2.882 1.484,0 0,-2.882 z m 0,-7.206 -1.484,0 0,2.882 1.484,0 0,-2.882 z m 118.308,122.482 -1.482,0 0,2.882 1.482,0 0,-2.882 z m 0,-7.206 -1.482,0 0,2.882 1.482,0 0,-2.882 z m 0,-7.202 -1.482,0 0,2.88 1.482,0 0,-2.88 z m 0,-7.206 -1.482,0 0,2.88 1.482,0 0,-2.88 z m 0,-7.206 -1.482,0 0,2.882 1.482,0 0,-2.882 z m 0,-7.204 -1.482,0 0,2.882 1.482,0 0,-2.882 z m 0,-7.204 -1.482,0 0,2.88 1.482,0 0,-2.88 z m 0,-7.204 -1.482,0 0,2.88 1.482,0 0,-2.88 z m 0,-7.206 -1.482,0 0,2.88 1.482,0 0,-2.88 z m 0,-7.204 -1.482,0 0,2.882 1.482,0 0,-2.882 z m 0,-7.206 -1.482,0 0,2.882 1.482,0 0,-2.882 z m 0,-7.204 -1.482,0 0,2.882 1.482,0 0,-2.882 z m 0,-7.206 -1.482,0 0,2.882 1.482,0 0,-2.882 z m 0,-7.204 -1.482,0 0,2.882 1.482,0 0,-2.882 z m 0,-7.204 -1.482,0 0,2.88 1.482,0 0,-2.88 z m 0,-7.206 -1.482,0 0,2.88 1.482,0 0,-2.88 z m 0,-7.204 -1.482,0 0,2.882 1.482,0 0,-2.882 z m 0,-7.206 -1.482,0 0,2.882 1.482,0 0,-2.882 z m 118.31,122.482 -1.484,0 0,2.882 1.484,0 0,-2.882 z m 0,-7.206 -1.484,0 0,2.882 1.484,0 0,-2.882 z m 0,-7.202 -1.484,0 0,2.88 1.484,0 0,-2.88 z m 0,-7.206 -1.484,0 0,2.88 1.484,0 0,-2.88 z m 0,-7.206 -1.484,0 0,2.882 1.484,0 0,-2.882 z m 0,-7.204 -1.484,0 0,2.882 1.484,0 0,-2.882 z m 0,-7.204 -1.484,0 0,2.88 1.484,0 0,-2.88 z m 0,-7.204 -1.484,0 0,2.88 1.484,0 0,-2.88 z m 0,-7.206 -1.484,0 0,2.88 1.484,0 0,-2.88 z m 0,-7.204 -1.484,0 0,2.882 1.484,0 0,-2.882 z m 0,-7.206 -1.484,0 0,2.882 1.484,0 0,-2.882 z m 0,-7.204 -1.484,0 0,2.882 1.484,0 0,-2.882 z m 0,-7.206 -1.484,0 0,2.882 1.484,0 0,-2.882 z m 0,-7.204 -1.484,0 0,2.882 1.484,0 0,-2.882 z m 0,-7.204 -1.484,0 0,2.88 1.484,0 0,-2.88 z m 0,-7.206 -1.484,0 0,2.88 1.484,0 0,-2.88 z m 0,-7.204 -1.484,0 0,2.882 1.484,0 0,-2.882 z m 0,-7.206 -1.484,0 0,2.882 1.484,0 0,-2.882 z m 118.31,122.482 -1.482,0 0,2.882 1.482,0 0,-2.882 z m 0,-7.206 -1.482,0 0,2.882 1.482,0 0,-2.882 z m 0,-7.204 -1.482,0 0,2.882 1.482,0 0,-2.882 z m 0,-7.204 -1.482,0 0,2.88 1.482,0 0,-2.88 z m 0,-7.206 -1.482,0 0,2.88 1.482,0 0,-2.88 z m 0,-7.204 -1.482,0 0,2.882 1.482,0 0,-2.882 z m 0,-7.206 -1.482,0 0,2.882 1.482,0 0,-2.882 z m 0,-7.204 -1.482,0 0,2.882 1.482,0 0,-2.882 z m 0,-7.206 -1.482,0 0,2.882 1.482,0 0,-2.882 z m 0,-7.202 -1.482,0 0,2.88 1.482,0 0,-2.88 z m 0,-7.206 -1.482,0 0,2.88 1.482,0 0,-2.88 z m 0,-7.204 -1.482,0 0,2.882 1.482,0 0,-2.882 z m 0,-7.206 -1.482,0 0,2.882 1.482,0 0,-2.882 z m 0,-7.204 -1.482,0 0,2.88 1.482,0 0,-2.88 z m 0,-7.206 -1.482,0 0,2.882 1.482,0 0,-2.882 z m 0,-7.204 -1.482,0 0,2.88 1.482,0 0,-2.88 z m 0,-7.204 -1.482,0 0,2.88 1.482,0 0,-2.88 z m 0,-7.206 -1.482,0 0,2.88 1.482,0 0,-2.88 z m -0.74,-3.876 c 0.982,0 1.778,-0.798 1.778,-1.782 0,-0.982 -0.796,-1.778 -1.778,-1.778 -0.986,0 -1.782,0.796 -1.782,1.778 0,0.984 0.796,1.782 1.782,1.782 m -118.312,0 c 0.984,0 1.782,-0.798 1.782,-1.78 0,-0.984 -0.798,-1.78 -1.782,-1.78 -0.982,0 -1.78,0.796 -1.78,1.78 0,0.982 0.798,1.78 1.78,1.78 m -118.308,0 c 0.982,0 1.78,-0.798 1.78,-1.78 0,-0.984 -0.798,-1.78 -1.78,-1.78 -0.984,0 -1.782,0.796 -1.782,1.78 0,0.982 0.798,1.78 1.782,1.78 m -118.31,0 c 0.982,0 1.78,-0.798 1.78,-1.78 0,-0.984 -0.798,-1.78 -1.78,-1.78 -0.982,0 -1.782,0.796 -1.782,1.78 0,0.982 0.8,1.78 1.782,1.78 m -118.308,0 c 0.982,0 1.778,-0.798 1.778,-1.78 0,-0.984 -0.796,-1.78 -1.778,-1.78 -0.986,0 -1.782,0.796 -1.782,1.78 0,0.982 0.796,1.78 1.782,1.78 m -118.31,0 c 0.982,0 1.78,-0.798 1.78,-1.78 0,-0.984 -0.798,-1.78 -1.78,-1.78 -0.984,0 -1.782,0.796 -1.782,1.78 0,0.982 0.798,1.78 1.782,1.78 m -118.31,0 c 0.982,0 1.78,-0.798 1.78,-1.78 0,-0.984 -0.798,-1.78 -1.78,-1.78 -0.984,0 -1.782,0.796 -1.782,1.78 0,0.982 0.798,1.78 1.782,1.78 m -118.309998,0 c 0.982,0 1.78,-0.798 1.78,-1.78 0,-0.984 -0.798,-1.78 -1.78,-1.78 -0.984,0 -1.78,0.796 -1.78,1.78 0,0.982 0.796,1.78 1.78,1.78 m -235.879982,126.358 -1.482,0 0,2.882 1.482,0 0,-2.882 z m 0,-7.206 -1.482,0 0,2.882 1.482,0 0,-2.882 z m 0,-7.204 -1.482,0 0,2.882 1.482,0 0,-2.882 z m 0,-7.204 -1.482,0 0,2.88 1.482,0 0,-2.88 z m 0,-7.206 -1.482,0 0,2.88 1.482,0 0,-2.88 z m 0,-7.204 -1.482,0 0,2.882 1.482,0 0,-2.882 z m 0,-7.206 -1.482,0 0,2.882 1.482,0 0,-2.882 z m 0,-7.204 -1.482,0 0,2.882 1.482,0 0,-2.882 z m 0,-7.206 -1.482,0 0,2.882 1.482,0 0,-2.882 z m 0,-7.202 -1.482,0 0,2.88 1.482,0 0,-2.88 z m 0,-7.206 -1.482,0 0,2.88 1.482,0 0,-2.88 z m 0,-7.204 -1.482,0 0,2.882 1.482,0 0,-2.882 z m 0,-7.206 -1.482,0 0,2.882 1.482,0 0,-2.882 z m 0,-7.204 -1.482,0 0,2.88 1.482,0 0,-2.88 z m 0,-7.206 -1.482,0 0,2.882 1.482,0 0,-2.882 z m 0,-7.204 -1.482,0 0,2.88 1.482,0 0,-2.88 z m 0,-7.204 -1.482,0 0,2.88 1.482,0 0,-2.88 z m 0,-7.206 -1.482,0 0,2.88 1.482,0 0,-2.88 z m -0.74,-3.876 c 0.982,0 1.78,-0.798 1.78,-1.782 0,-0.982 -0.798,-1.778 -1.78,-1.778 -0.984,0 -1.782,0.796 -1.782,1.778 0,0.984 0.798,1.782 1.782,1.782 m 118.31,0 c 0.984,0 1.782,-0.798 1.782,-1.78 0,-0.984 -0.798,-1.78 -1.782,-1.78 -0.984,0 -1.78,0.796 -1.78,1.78 0,0.982 0.796,1.78 1.78,1.78"
   style="fill:#d3d2d2;fill-opacity:1;fill-rule:evenodd;stroke:none"
   id="path5507"
   inkscape:connector-curvature="0" /><g
   id="g5513"
   transform="matrix(2,0,0,2,840.60055,854.49723)"><path
     d="M 0,0 C 0,0.133 -0.048,0.248 -0.143,0.344 -0.238,0.438 -0.354,0.486 -0.486,0.486 -0.621,0.486 -0.734,0.438 -0.828,0.344 -0.921,0.248 -0.969,0.133 -0.969,0 l 0,-3.056 c 0,-0.132 0.048,-0.248 0.141,-0.342 0.094,-0.096 0.207,-0.143 0.342,-0.143 0.132,0 0.248,0.047 0.343,0.143 C -0.048,-3.304 0,-3.188 0,-3.056 L 0,0 z m 0.874,-3.068 c 0,-0.371 -0.131,-0.687 -0.393,-0.945 -0.261,-0.258 -0.576,-0.388 -0.941,-0.388 -0.372,0 -0.687,0.13 -0.948,0.39 -0.261,0.26 -0.39,0.574 -0.39,0.943 l 0,3.05 c 0,0.372 0.131,0.688 0.392,0.948 0.261,0.26 0.577,0.39 0.946,0.39 0.372,0 0.687,-0.131 0.945,-0.392 0.259,-0.262 0.389,-0.577 0.389,-0.946 l 0,-3.05 z m -5.059,3.473 0,-1.199 c 0.084,0.119 0.202,0.211 0.353,0.276 0.08,0.034 0.174,0.049 0.28,0.049 0.369,0 0.641,-0.129 0.817,-0.387 0.152,-0.224 0.227,-0.539 0.227,-0.946 l 0,-1.205 c 0,-0.413 -0.131,-0.752 -0.392,-1.015 -0.25,-0.257 -0.566,-0.385 -0.946,-0.385 -0.369,0 -0.675,0.135 -0.919,0.402 -0.235,0.256 -0.352,0.567 -0.352,0.937 l 0,0.133 0.806,0.063 0.019,-0.192 c 0.021,-0.224 0.111,-0.373 0.271,-0.447 0.049,-0.024 0.099,-0.036 0.153,-0.036 0.345,0 0.517,0.181 0.517,0.54 l 0,1.369 c 0,0.164 -0.059,0.3 -0.177,0.407 -0.057,0.051 -0.136,0.076 -0.237,0.076 -0.149,0 -0.259,-0.059 -0.331,-0.174 -0.059,-0.101 -0.089,-0.208 -0.089,-0.321 l 0,-0.152 -0.847,0 0,3.055 2.467,0 0,-0.848 -1.62,0 z M -8.431,-0.33 c 0,0.529 0.143,0.934 0.429,1.213 0.246,0.247 0.57,0.37 0.972,0.37 0.368,0 0.683,-0.138 0.943,-0.414 0.26,-0.277 0.39,-0.6 0.39,-0.968 0,-0.381 -0.084,-0.748 -0.254,-1.102 -0.092,-0.196 -0.308,-0.535 -0.647,-1.012 -0.092,-0.131 -0.229,-0.334 -0.41,-0.611 L -7.16,-3.081 c -0.098,-0.149 -0.172,-0.267 -0.223,-0.354 -0.024,-0.044 -0.035,-0.071 -0.035,-0.08 l 1.654,0 0,-0.825 -2.68,0 0,0.773 c 0,0.017 0.062,0.121 0.185,0.308 0.057,0.086 0.121,0.181 0.193,0.285 l 0.219,0.316 c 0.128,0.175 0.329,0.457 0.603,0.843 0.258,0.363 0.452,0.691 0.579,0.986 0.103,0.24 0.156,0.466 0.156,0.674 0,0.169 -0.047,0.312 -0.142,0.431 -0.105,0.125 -0.238,0.188 -0.401,0.188 -0.235,0 -0.402,-0.135 -0.5,-0.406 -0.032,-0.089 -0.049,-0.196 -0.049,-0.322 l 0,-0.213 -0.83,0 0,0.147 z"
     style="fill:#7b7979;fill-opacity:1;fill-rule:nonzero;stroke:none"
     id="path5515"
     inkscape:connector-curvature="0" /></g><g
   id="g5525"
   transform="matrix(2,0,0,2,780.52835,829.03643)"><path
     d="M 0,0 C 0,0.133 -0.047,0.248 -0.143,0.344 -0.237,0.438 -0.353,0.486 -0.486,0.486 -0.62,0.486 -0.733,0.438 -0.827,0.344 -0.921,0.248 -0.968,0.133 -0.968,0 l 0,-3.056 c 0,-0.132 0.047,-0.248 0.141,-0.343 0.094,-0.095 0.207,-0.142 0.341,-0.142 0.133,0 0.249,0.047 0.343,0.142 C -0.047,-3.304 0,-3.188 0,-3.056 L 0,0 z m 0.874,-3.068 c 0,-0.371 -0.131,-0.687 -0.393,-0.946 -0.261,-0.257 -0.575,-0.387 -0.94,-0.387 -0.373,0 -0.687,0.13 -0.948,0.389 -0.261,0.26 -0.391,0.575 -0.391,0.944 l 0,3.05 c 0,0.372 0.131,0.688 0.393,0.948 0.261,0.26 0.576,0.389 0.946,0.389 0.371,0 0.687,-0.13 0.945,-0.391 0.258,-0.262 0.388,-0.577 0.388,-0.946 l 0,-3.05 z m -4.232,3.041 c 0,0.137 -0.038,0.253 -0.11,0.346 C -3.541,0.412 -3.645,0.46 -3.777,0.46 -3.912,0.46 -4.015,0.412 -4.089,0.319 -4.16,0.226 -4.197,0.11 -4.197,-0.027 l 0,-1.035 c 0,-0.164 0.059,-0.298 0.177,-0.405 0.055,-0.052 0.133,-0.076 0.238,-0.076 0.214,0 0.347,0.112 0.401,0.339 0.015,0.067 0.023,0.12 0.023,0.155 l 0,1.022 z M -3.8,1.319 c 0.368,0 0.674,-0.133 0.918,-0.4 0.236,-0.256 0.353,-0.568 0.353,-0.937 l 0,-3.05 c 0,-0.371 -0.121,-0.687 -0.364,-0.946 -0.242,-0.257 -0.545,-0.387 -0.907,-0.387 -0.372,0 -0.678,0.131 -0.919,0.396 -0.235,0.255 -0.352,0.568 -0.352,0.937 l 0,0.12 0.874,0 0,-0.138 c 0,-0.138 0.037,-0.251 0.108,-0.344 0.074,-0.091 0.177,-0.137 0.312,-0.137 0.132,0 0.236,0.046 0.309,0.137 0.072,0.093 0.11,0.206 0.11,0.344 l 0,1.119 c -0.197,-0.175 -0.411,-0.262 -0.638,-0.262 -0.368,0 -0.647,0.127 -0.83,0.387 -0.163,0.227 -0.245,0.541 -0.245,0.946 l 0,0.958 0.004,0 c 0.012,0.258 0.086,0.492 0.22,0.698 0.136,0.207 0.321,0.361 0.551,0.462 0.152,0.065 0.317,0.097 0.496,0.097 m -2.841,-5.663 0,4.304 -0.713,0 0,0.589 c 0.203,0.023 0.395,0.1 0.579,0.228 0.181,0.13 0.313,0.287 0.394,0.472 l 0.588,0 0,-5.593 -0.848,0 z"
     style="fill:#7b7979;fill-opacity:1;fill-rule:nonzero;stroke:none"
     id="path5527"
     inkscape:connector-curvature="0" /></g><g
   id="g5529"
   transform="matrix(2,0,0,2,722.27835,838.99523)"><path
     d="m 0,0 c 0,0.133 -0.047,0.248 -0.143,0.343 -0.094,0.095 -0.21,0.142 -0.343,0.142 -0.135,0 -0.247,-0.047 -0.342,-0.142 C -0.921,0.248 -0.969,0.133 -0.969,0 l 0,-3.056 c 0,-0.132 0.048,-0.248 0.141,-0.343 0.095,-0.095 0.207,-0.142 0.342,-0.142 0.133,0 0.249,0.047 0.343,0.142 C -0.047,-3.304 0,-3.188 0,-3.056 L 0,0 z m 0.874,-3.068 c 0,-0.372 -0.131,-0.687 -0.393,-0.946 -0.261,-0.257 -0.576,-0.387 -0.941,-0.387 -0.372,0 -0.687,0.13 -0.947,0.389 -0.262,0.26 -0.391,0.575 -0.391,0.944 l 0,3.05 c 0,0.372 0.131,0.688 0.393,0.948 0.26,0.259 0.576,0.389 0.945,0.389 0.372,0 0.688,-0.13 0.945,-0.391 0.259,-0.262 0.389,-0.577 0.389,-0.946 l 0,-3.05 z m -6.102,2.737 c 0,0.53 0.143,0.934 0.428,1.214 0.247,0.246 0.571,0.37 0.973,0.37 0.368,0 0.682,-0.139 0.942,-0.415 0.261,-0.277 0.391,-0.6 0.391,-0.968 0,-0.381 -0.085,-0.747 -0.254,-1.101 -0.093,-0.197 -0.308,-0.535 -0.648,-1.013 -0.091,-0.131 -0.228,-0.334 -0.41,-0.61 L -3.957,-3.082 C -4.055,-3.23 -4.13,-3.348 -4.181,-3.435 -4.204,-3.479 -4.216,-3.506 -4.216,-3.516 l 1.654,0 0,-0.824 -2.679,0 0,0.773 c 0,0.017 0.061,0.121 0.184,0.308 0.058,0.086 0.122,0.181 0.194,0.284 l 0.219,0.317 c 0.127,0.175 0.329,0.456 0.602,0.843 0.259,0.363 0.452,0.691 0.58,0.985 0.104,0.241 0.155,0.466 0.155,0.674 0,0.17 -0.047,0.313 -0.141,0.432 -0.105,0.125 -0.239,0.188 -0.402,0.188 -0.235,0 -0.401,-0.135 -0.499,-0.406 -0.032,-0.089 -0.048,-0.196 -0.048,-0.322 l 0,-0.214 -0.831,0 0,0.147 z m -3.327,0 c 0,0.53 0.143,0.934 0.428,1.214 0.247,0.246 0.57,0.37 0.973,0.37 0.368,0 0.682,-0.139 0.942,-0.415 0.261,-0.277 0.391,-0.6 0.391,-0.968 0,-0.381 -0.085,-0.747 -0.254,-1.101 -0.093,-0.197 -0.308,-0.535 -0.648,-1.013 -0.091,-0.131 -0.228,-0.334 -0.41,-0.61 L -7.284,-3.082 C -7.382,-3.23 -7.457,-3.348 -7.507,-3.435 -7.531,-3.479 -7.543,-3.506 -7.543,-3.516 l 1.655,0 0,-0.824 -2.68,0 0,0.773 c 0,0.017 0.061,0.121 0.185,0.308 0.057,0.086 0.121,0.181 0.193,0.284 l 0.219,0.317 c 0.128,0.175 0.328,0.456 0.602,0.843 0.259,0.363 0.452,0.691 0.58,0.985 0.103,0.241 0.155,0.466 0.155,0.674 0,0.17 -0.047,0.313 -0.141,0.432 -0.105,0.125 -0.238,0.188 -0.402,0.188 -0.235,0 -0.401,-0.135 -0.499,-0.406 -0.032,-0.089 -0.049,-0.196 -0.049,-0.322 l 0,-0.214 -0.83,0 0,0.147 z"
     style="fill:#7b7979;fill-opacity:1;fill-rule:nonzero;stroke:none"
     id="path5531"
     inkscape:connector-curvature="0" /></g><g
   id="g5541"
   transform="matrix(2,0,0,2,661.60635,852.02263)"><path
     d="M 0,0 C 0,0.133 -0.048,0.248 -0.143,0.344 -0.238,0.438 -0.354,0.486 -0.487,0.486 -0.621,0.486 -0.734,0.438 -0.828,0.344 -0.921,0.248 -0.969,0.133 -0.969,0 l 0,-3.056 c 0,-0.132 0.048,-0.248 0.141,-0.342 0.094,-0.096 0.207,-0.143 0.341,-0.143 0.133,0 0.249,0.047 0.344,0.143 C -0.048,-3.304 0,-3.188 0,-3.056 L 0,0 z m 0.873,-3.068 c 0,-0.371 -0.13,-0.687 -0.392,-0.945 -0.261,-0.258 -0.576,-0.388 -0.941,-0.388 -0.372,0 -0.687,0.13 -0.948,0.39 -0.261,0.26 -0.39,0.574 -0.39,0.943 l 0,3.05 c 0,0.372 0.131,0.688 0.392,0.948 0.261,0.26 0.577,0.39 0.946,0.39 0.372,0 0.687,-0.131 0.945,-0.392 0.259,-0.262 0.388,-0.577 0.388,-0.946 l 0,-3.05 z m -3.251,4.321 0,-0.848 -1.182,-4.745 -0.824,0 1.181,4.745 -1.707,0 0,0.848 2.532,0 z m -3.96,-5.597 0,4.304 -0.713,0 0,0.589 c 0.202,0.024 0.395,0.1 0.578,0.229 0.182,0.129 0.314,0.286 0.395,0.471 l 0.588,0 0,-5.593 -0.848,0 z"
     style="fill:#7b7979;fill-opacity:1;fill-rule:nonzero;stroke:none"
     id="path5543"
     inkscape:connector-curvature="0" /></g><g
   id="g5545"
   transform="matrix(2,0,0,2,602.34475,833.91323)"><path
     d="m 0,0 0,-1.199 c 0.084,0.119 0.201,0.211 0.353,0.276 0.08,0.033 0.173,0.049 0.281,0.049 0.368,0 0.639,-0.129 0.816,-0.388 0.152,-0.223 0.227,-0.538 0.227,-0.945 l 0,-1.205 c 0,-0.413 -0.131,-0.752 -0.393,-1.016 -0.25,-0.257 -0.564,-0.384 -0.945,-0.384 -0.369,0 -0.675,0.134 -0.918,0.402 -0.236,0.255 -0.354,0.567 -0.354,0.936 l 0,0.134 0.808,0.063 0.018,-0.193 c 0.02,-0.223 0.112,-0.372 0.272,-0.446 0.048,-0.024 0.098,-0.036 0.151,-0.036 0.346,0 0.518,0.181 0.518,0.54 l 0,1.369 c 0,0.164 -0.06,0.299 -0.178,0.406 C 0.6,-1.586 0.521,-1.561 0.42,-1.561 0.271,-1.561 0.16,-1.619 0.089,-1.734 0.029,-1.836 0,-1.942 0,-2.056 l 0,-0.151 -0.848,0 0,3.055 2.467,0 L 1.619,0 0,0 z m -2.506,-0.405 c 0,0.133 -0.048,0.248 -0.142,0.343 -0.096,0.095 -0.211,0.143 -0.345,0.143 -0.134,0 -0.247,-0.048 -0.341,-0.143 -0.093,-0.095 -0.141,-0.21 -0.141,-0.343 l 0,-3.056 c 0,-0.133 0.048,-0.248 0.141,-0.343 0.094,-0.095 0.207,-0.142 0.341,-0.142 0.134,0 0.249,0.047 0.345,0.142 0.094,0.095 0.142,0.21 0.142,0.343 l 0,3.056 z m 0.873,-3.069 c 0,-0.371 -0.131,-0.686 -0.391,-0.944 -0.262,-0.259 -0.577,-0.389 -0.942,-0.389 -0.373,0 -0.687,0.13 -0.948,0.391 -0.261,0.259 -0.39,0.574 -0.39,0.942 l 0,3.051 c 0,0.371 0.13,0.688 0.392,0.947 0.262,0.261 0.577,0.391 0.946,0.391 0.371,0 0.687,-0.131 0.945,-0.393 0.259,-0.261 0.388,-0.577 0.388,-0.945 l 0,-3.051 z m -6.1,2.739 c 0,0.529 0.141,0.932 0.427,1.213 0.247,0.247 0.571,0.37 0.972,0.37 0.368,0 0.684,-0.139 0.943,-0.414 C -5.13,0.156 -5,-0.166 -5,-0.534 -5,-0.916 -5.085,-1.282 -5.255,-1.637 -5.347,-1.832 -5.562,-2.171 -5.901,-2.648 -5.994,-2.779 -6.131,-2.982 -6.312,-3.26 L -6.464,-3.487 C -6.561,-3.636 -6.636,-3.753 -6.687,-3.84 -6.711,-3.884 -6.722,-3.911 -6.722,-3.92 l 1.655,0 0,-0.825 -2.68,0 0,0.772 c 0,0.018 0.061,0.121 0.185,0.309 0.056,0.086 0.121,0.181 0.192,0.285 l 0.221,0.316 c 0.127,0.174 0.328,0.457 0.601,0.842 0.258,0.364 0.452,0.692 0.579,0.987 0.105,0.24 0.157,0.464 0.157,0.672 0,0.17 -0.047,0.314 -0.143,0.433 -0.105,0.125 -0.237,0.188 -0.4,0.188 -0.236,0 -0.403,-0.135 -0.499,-0.407 -0.033,-0.089 -0.05,-0.195 -0.05,-0.321 l 0,-0.213 -0.829,0 0,0.147 z"
     style="fill:#7b7979;fill-opacity:1;fill-rule:nonzero;stroke:none"
     id="path5547"
     inkscape:connector-curvature="0" /></g><g
   id="g5553"
   transform="matrix(2,0,0,2,543.63775,809.54423)"><path
     d="M 0,0 C 0,0.134 -0.048,0.248 -0.143,0.344 -0.238,0.438 -0.354,0.486 -0.487,0.486 -0.621,0.486 -0.734,0.438 -0.828,0.344 -0.921,0.248 -0.969,0.134 -0.969,0 l 0,-3.056 c 0,-0.132 0.048,-0.248 0.141,-0.342 0.094,-0.096 0.207,-0.143 0.341,-0.143 0.133,0 0.249,0.047 0.344,0.143 C -0.048,-3.304 0,-3.188 0,-3.056 L 0,0 z m 0.873,-3.068 c 0,-0.371 -0.13,-0.686 -0.392,-0.945 -0.261,-0.258 -0.576,-0.388 -0.941,-0.388 -0.372,0 -0.687,0.13 -0.948,0.39 -0.261,0.26 -0.39,0.574 -0.39,0.943 l 0,3.05 c 0,0.372 0.13,0.688 0.392,0.948 0.261,0.26 0.577,0.39 0.946,0.39 0.371,0 0.687,-0.131 0.945,-0.392 0.259,-0.262 0.388,-0.577 0.388,-0.946 l 0,-3.05 z m -5.058,3.473 0,-1.199 c 0.084,0.119 0.202,0.212 0.353,0.276 0.08,0.034 0.174,0.049 0.28,0.049 0.369,0 0.641,-0.129 0.817,-0.387 0.152,-0.224 0.227,-0.539 0.227,-0.946 l 0,-1.205 c 0,-0.413 -0.131,-0.752 -0.392,-1.015 -0.25,-0.257 -0.566,-0.384 -0.946,-0.384 -0.369,0 -0.675,0.134 -0.919,0.401 -0.235,0.256 -0.352,0.567 -0.352,0.937 l 0,0.133 0.806,0.063 0.019,-0.191 c 0.021,-0.225 0.111,-0.374 0.271,-0.448 0.049,-0.024 0.099,-0.035 0.152,-0.035 0.346,0 0.518,0.18 0.518,0.539 l 0,1.369 c 0,0.165 -0.059,0.3 -0.177,0.407 -0.057,0.051 -0.137,0.076 -0.237,0.076 -0.149,0 -0.259,-0.059 -0.331,-0.173 -0.059,-0.102 -0.089,-0.209 -0.089,-0.322 l 0,-0.152 -0.847,0 0,3.055 2.467,0 0,-0.848 -1.62,0 z m -2.494,-4.749 0,4.304 -0.713,0 0,0.589 c 0.203,0.024 0.395,0.1 0.579,0.229 0.181,0.129 0.313,0.286 0.394,0.471 l 0.588,0 0,-5.593 -0.848,0 z"
     style="fill:#7b7979;fill-opacity:1;fill-rule:nonzero;stroke:none"
     id="path5555"
     inkscape:connector-curvature="0" /></g><g
   id="g5557"
   transform="matrix(2,0,0,2,482.34475,809.03243)"><path
     d="m 0,0 c 0,0.133 -0.047,0.248 -0.143,0.343 -0.094,0.095 -0.21,0.142 -0.343,0.142 -0.135,0 -0.247,-0.047 -0.342,-0.142 C -0.921,0.248 -0.968,0.133 -0.968,0 l 0,-3.056 c 0,-0.133 0.047,-0.248 0.14,-0.343 0.095,-0.096 0.207,-0.143 0.342,-0.143 0.133,0 0.249,0.047 0.343,0.143 C -0.047,-3.304 0,-3.189 0,-3.056 L 0,0 z m 0.874,-3.068 c 0,-0.372 -0.131,-0.687 -0.393,-0.946 -0.261,-0.258 -0.576,-0.388 -0.94,-0.388 -0.373,0 -0.688,0.13 -0.948,0.39 -0.261,0.26 -0.391,0.574 -0.391,0.944 l 0,3.05 c 0,0.372 0.131,0.688 0.393,0.947 0.261,0.26 0.576,0.39 0.946,0.39 0.371,0 0.687,-0.131 0.944,-0.392 0.259,-0.262 0.389,-0.576 0.389,-0.945 l 0,-3.05 z m -4.205,2.857 C -3.337,0.174 -3.458,0.414 -3.692,0.513 -3.745,0.536 -3.81,0.548 -3.884,0.548 -4.03,0.548 -4.148,0.509 -4.24,0.428 -4.315,0.362 -4.368,0.278 -4.399,0.176 -4.431,0.073 -4.443,-0.056 -4.437,-0.211 c 0.009,-0.243 0.046,-0.418 0.116,-0.525 0.089,-0.143 0.234,-0.214 0.437,-0.214 0.202,0 0.349,0.075 0.441,0.226 0.077,0.129 0.115,0.3 0.112,0.513 m -0.027,-2.461 c 0,0.333 -0.076,0.556 -0.228,0.669 -0.072,0.053 -0.171,0.08 -0.299,0.08 -0.222,0 -0.375,-0.095 -0.455,-0.286 -0.047,-0.114 -0.071,-0.27 -0.071,-0.463 l 0,-0.267 c 0,-0.184 0.057,-0.332 0.17,-0.446 0.095,-0.094 0.214,-0.145 0.356,-0.151 0.229,0.011 0.389,0.124 0.478,0.339 0.032,0.071 0.049,0.157 0.049,0.258 l 0,0.267 z m 0.842,-0.396 c 0,-0.372 -0.13,-0.687 -0.392,-0.946 -0.262,-0.258 -0.577,-0.388 -0.946,-0.388 l -0.067,0 c -0.371,0 -0.686,0.131 -0.944,0.392 -0.259,0.262 -0.389,0.576 -0.389,0.942 l 0,0.508 c 0,0.342 0.114,0.64 0.344,0.896 0.098,0.109 0.212,0.201 0.343,0.271 -0.226,0.117 -0.401,0.311 -0.527,0.581 -0.061,0.14 -0.093,0.315 -0.093,0.526 l 0,0.304 c 0,0.362 0.107,0.662 0.322,0.901 0.237,0.267 0.553,0.4 0.944,0.4 l 0.067,0 c 0.396,0 0.713,-0.133 0.951,-0.4 0.215,-0.242 0.321,-0.542 0.321,-0.901 l 0,-0.304 c 0,-0.348 -0.105,-0.636 -0.313,-0.865 -0.091,-0.101 -0.195,-0.181 -0.307,-0.242 0.25,-0.138 0.442,-0.35 0.579,-0.636 0.071,-0.146 0.107,-0.323 0.107,-0.531 l 0,-0.508 z"
     style="fill:#7b7979;fill-opacity:1;fill-rule:nonzero;stroke:none"
     id="path5559"
     inkscape:connector-curvature="0" /></g><g
   id="g5569"
   transform="matrix(2,0,0,2,423.19035,807.68483)"><path
     d="M 0,0 C 0,0.133 -0.048,0.248 -0.143,0.343 -0.238,0.438 -0.354,0.485 -0.487,0.485 -0.621,0.485 -0.734,0.438 -0.828,0.343 -0.921,0.248 -0.969,0.133 -0.969,0 l 0,-3.056 c 0,-0.133 0.048,-0.248 0.141,-0.343 0.094,-0.095 0.207,-0.143 0.341,-0.143 0.133,0 0.249,0.048 0.344,0.143 C -0.048,-3.304 0,-3.189 0,-3.056 L 0,0 z m 0.873,-3.068 c 0,-0.372 -0.131,-0.687 -0.393,-0.946 -0.26,-0.258 -0.575,-0.388 -0.94,-0.388 -0.373,0 -0.687,0.13 -0.948,0.39 -0.261,0.26 -0.391,0.575 -0.391,0.944 l 0,3.05 c 0,0.372 0.131,0.688 0.393,0.947 0.261,0.26 0.577,0.39 0.946,0.39 0.371,0 0.687,-0.131 0.945,-0.392 0.259,-0.261 0.388,-0.576 0.388,-0.945 l 0,-3.05 z m -4.205,2.857 C -3.338,0.174 -3.458,0.414 -3.692,0.513 -3.746,0.536 -3.81,0.548 -3.884,0.548 -4.03,0.548 -4.149,0.509 -4.241,0.428 -4.315,0.362 -4.369,0.278 -4.4,0.176 -4.432,0.073 -4.444,-0.056 -4.437,-0.211 c 0.008,-0.243 0.046,-0.418 0.116,-0.525 0.089,-0.143 0.234,-0.214 0.437,-0.214 0.201,0 0.349,0.075 0.441,0.226 0.077,0.129 0.115,0.3 0.111,0.513 m -0.026,-2.461 c 0,0.333 -0.077,0.556 -0.228,0.669 -0.072,0.053 -0.172,0.08 -0.299,0.08 -0.223,0 -0.375,-0.095 -0.456,-0.285 -0.047,-0.115 -0.071,-0.271 -0.071,-0.464 l 0,-0.267 c 0,-0.184 0.057,-0.332 0.17,-0.446 0.096,-0.094 0.215,-0.145 0.357,-0.151 0.229,0.012 0.388,0.124 0.477,0.339 0.032,0.071 0.05,0.157 0.05,0.258 l 0,0.267 z m 0.841,-0.396 c 0,-0.372 -0.13,-0.687 -0.392,-0.946 -0.262,-0.258 -0.576,-0.388 -0.945,-0.388 l -0.067,0 c -0.371,0 -0.686,0.131 -0.945,0.392 -0.259,0.262 -0.388,0.576 -0.388,0.942 l 0,0.508 c 0,0.342 0.113,0.64 0.343,0.896 0.099,0.109 0.213,0.201 0.344,0.272 -0.227,0.116 -0.402,0.31 -0.527,0.58 -0.061,0.14 -0.093,0.315 -0.093,0.526 l 0,0.304 c 0,0.362 0.107,0.662 0.321,0.901 0.238,0.267 0.553,0.4 0.945,0.4 l 0.067,0 c 0.396,0 0.712,-0.133 0.951,-0.4 0.215,-0.242 0.321,-0.542 0.321,-0.901 l 0,-0.304 c 0,-0.348 -0.106,-0.636 -0.314,-0.865 -0.091,-0.101 -0.194,-0.181 -0.307,-0.241 0.25,-0.139 0.443,-0.351 0.58,-0.637 0.071,-0.146 0.106,-0.323 0.106,-0.531 l 0,-0.508 z"
     style="fill:#7b7979;fill-opacity:1;fill-rule:nonzero;stroke:none"
     id="path5571"
     inkscape:connector-curvature="0" /></g><g
   id="g5573"
   transform="matrix(2,0,0,2,365.50095,790.05583)"><path
     d="m 0,0 0,-0.848 -1.182,-4.745 -0.824,0 1.181,4.745 -1.707,0 0,0.848 L 0,0 z m -4.535,-4.794 c 0.387,0 0.58,0.18 0.58,0.54 l 0,0.33 c 0,0.573 -0.3,0.861 -0.901,0.861 l 0,0.722 c 0.325,0 0.564,0.091 0.718,0.273 0.143,0.163 0.214,0.391 0.214,0.686 l 0,0.129 c 0,0.366 -0.16,0.549 -0.481,0.549 -0.179,0 -0.31,-0.068 -0.393,-0.205 -0.062,-0.105 -0.094,-0.239 -0.094,-0.406 l 0,-0.148 -0.825,0 0,0.13 c 0,0.398 0.103,0.723 0.304,0.973 0.229,0.285 0.552,0.427 0.969,0.427 0.394,0 0.711,-0.133 0.949,-0.401 0.214,-0.241 0.32,-0.542 0.32,-0.9 l 0,-0.237 c 0,-0.347 -0.102,-0.648 -0.311,-0.901 -0.09,-0.107 -0.194,-0.198 -0.313,-0.273 0.25,-0.138 0.443,-0.351 0.58,-0.636 0.071,-0.146 0.107,-0.323 0.107,-0.532 l 0,-0.441 c 0,-0.413 -0.142,-0.753 -0.424,-1.017 -0.271,-0.255 -0.596,-0.383 -0.977,-0.383 -0.371,0 -0.686,0.131 -0.945,0.392 -0.259,0.262 -0.388,0.575 -0.388,0.942 l 0,0.137 0.802,0.063 0.019,-0.196 c 0.011,-0.141 0.061,-0.255 0.149,-0.344 0.088,-0.089 0.201,-0.134 0.341,-0.134"
     style="fill:#7b7979;fill-opacity:1;fill-rule:nonzero;stroke:none"
     id="path5575"
     inkscape:connector-curvature="0" /></g><g
   id="g5585"
   transform="matrix(2,0,0,2,303.35835,800.12223)"><path
     d="m 0,0 0,-1.199 c 0.084,0.119 0.201,0.212 0.353,0.276 0.08,0.034 0.173,0.049 0.281,0.049 0.368,0 0.639,-0.128 0.815,-0.388 0.153,-0.222 0.228,-0.538 0.228,-0.945 l 0,-1.204 c 0,-0.413 -0.131,-0.753 -0.393,-1.017 -0.25,-0.256 -0.564,-0.384 -0.945,-0.384 -0.369,0 -0.675,0.134 -0.919,0.402 -0.235,0.256 -0.353,0.567 -0.353,0.937 l 0,0.134 0.807,0.062 0.019,-0.192 c 0.02,-0.223 0.111,-0.373 0.271,-0.447 0.049,-0.023 0.099,-0.035 0.152,-0.035 0.346,0 0.518,0.18 0.518,0.54 l 0,1.369 c 0,0.164 -0.06,0.299 -0.178,0.405 C 0.6,-1.585 0.521,-1.56 0.42,-1.56 0.271,-1.56 0.16,-1.618 0.089,-1.733 0.029,-1.835 0,-1.942 0,-2.055 l 0,-0.152 -0.848,0 0,3.056 2.467,0 L 1.619,0 0,0 z m -3.292,0 0,-1.199 c 0.084,0.119 0.201,0.212 0.354,0.276 0.079,0.034 0.172,0.049 0.28,0.049 0.368,0 0.64,-0.128 0.816,-0.388 0.152,-0.222 0.227,-0.538 0.227,-0.945 l 0,-1.204 c 0,-0.413 -0.131,-0.753 -0.393,-1.017 -0.25,-0.256 -0.564,-0.384 -0.944,-0.384 -0.37,0 -0.675,0.134 -0.919,0.402 -0.235,0.256 -0.353,0.567 -0.353,0.937 l 0,0.134 0.807,0.062 0.018,-0.192 c 0.021,-0.223 0.112,-0.373 0.272,-0.447 0.048,-0.023 0.099,-0.035 0.151,-0.035 0.346,0 0.519,0.18 0.519,0.54 l 0,1.369 c 0,0.164 -0.061,0.299 -0.179,0.405 -0.055,0.052 -0.135,0.077 -0.236,0.077 -0.149,0 -0.259,-0.058 -0.33,-0.173 -0.06,-0.102 -0.09,-0.209 -0.09,-0.322 l 0,-0.152 -0.847,0 0,3.056 2.467,0 0,-0.849 -1.62,0 z"
     style="fill:#7b7979;fill-opacity:1;fill-rule:nonzero;stroke:none"
     id="path5587"
     inkscape:connector-curvature="0" /></g><g
   id="g5589"
   transform="matrix(2,0,0,2,246.75295,791.11643)"><path
     d="M 0,0 C -0.006,0.385 -0.126,0.625 -0.361,0.724 -0.415,0.748 -0.478,0.76 -0.553,0.76 -0.699,0.76 -0.817,0.72 -0.909,0.639 -0.984,0.573 -1.037,0.489 -1.069,0.387 -1.1,0.284 -1.113,0.155 -1.106,0 c 0.009,-0.243 0.047,-0.418 0.116,-0.524 0.089,-0.144 0.234,-0.215 0.437,-0.215 0.202,0 0.349,0.075 0.441,0.226 C -0.035,-0.384 0.003,-0.213 0,0 m -0.027,-2.461 c 0,0.333 -0.076,0.556 -0.227,0.669 -0.073,0.053 -0.172,0.08 -0.3,0.08 -0.223,0 -0.374,-0.095 -0.455,-0.285 -0.047,-0.115 -0.071,-0.271 -0.071,-0.464 l 0,-0.267 c 0,-0.184 0.057,-0.333 0.169,-0.446 0.096,-0.095 0.215,-0.145 0.357,-0.151 0.229,0.012 0.389,0.124 0.477,0.339 0.033,0.071 0.05,0.157 0.05,0.258 l 0,0.267 z M 0.815,-2.857 C 0.815,-3.229 0.684,-3.544 0.423,-3.803 0.161,-4.061 -0.154,-4.19 -0.522,-4.19 l -0.067,0 c -0.372,0 -0.687,0.129 -0.945,0.391 -0.259,0.262 -0.388,0.576 -0.388,0.942 l 0,0.508 c 0,0.342 0.113,0.64 0.343,0.896 0.098,0.11 0.212,0.201 0.343,0.272 -0.226,0.117 -0.401,0.31 -0.526,0.58 -0.062,0.14 -0.093,0.315 -0.093,0.527 l 0,0.303 c 0,0.362 0.106,0.662 0.321,0.901 0.238,0.266 0.553,0.4 0.945,0.4 l 0.067,0 c 0.396,0 0.712,-0.134 0.95,-0.4 C 0.643,0.888 0.749,0.588 0.749,0.229 l 0,-0.303 C 0.749,-0.422 0.645,-0.711 0.436,-0.94 0.344,-1.041 0.242,-1.121 0.129,-1.181 0.379,-1.32 0.571,-1.532 0.708,-1.818 0.779,-1.964 0.815,-2.141 0.815,-2.349 l 0,-0.508 z m -4.806,0.78 -10e-4,1.745 -0.695,-1.746 0.696,10e-4 z m -1.49,0 1.49,3.541 0.843,0 0,-3.541 0.539,0 0,-0.848 -0.539,0 0,-1.204 -0.843,0 0,1.204 -1.49,0 0,0.848 z"
     style="fill:#7b7979;fill-opacity:1;fill-rule:nonzero;stroke:none"
     id="path5591"
     inkscape:connector-curvature="0" /></g><g
   id="g5601"
   transform="matrix(2,0,0,2,185.18255,784.11243)"><path
     d="m 0,0 0,-1.199 c 0.084,0.119 0.201,0.212 0.353,0.276 0.08,0.033 0.173,0.049 0.28,0.049 0.369,0 0.64,-0.128 0.817,-0.388 0.152,-0.222 0.227,-0.538 0.227,-0.945 l 0,-1.204 c 0,-0.414 -0.131,-0.753 -0.393,-1.017 -0.25,-0.256 -0.565,-0.384 -0.945,-0.384 -0.369,0 -0.675,0.134 -0.919,0.402 -0.235,0.256 -0.352,0.567 -0.352,0.937 l 0,0.134 0.807,0.062 0.018,-0.192 c 0.021,-0.224 0.111,-0.373 0.272,-0.447 0.048,-0.024 0.098,-0.035 0.151,-0.035 0.346,0 0.518,0.18 0.518,0.54 l 0,1.369 c 0,0.164 -0.06,0.299 -0.178,0.405 C 0.6,-1.585 0.521,-1.56 0.42,-1.56 0.271,-1.56 0.16,-1.619 0.089,-1.733 0.03,-1.835 0,-1.942 0,-2.055 l 0,-0.152 -0.848,0 0,3.055 2.467,0 L 1.619,0 0,0 z m -3.046,-3.946 c 0.386,0 0.579,0.179 0.579,0.54 l 0,0.33 c 0,0.573 -0.3,0.86 -0.901,0.86 l 0,0.723 c 0.325,0 0.564,0.091 0.718,0.272 0.144,0.163 0.215,0.392 0.215,0.687 l 0,0.129 c 0,0.366 -0.16,0.549 -0.482,0.549 -0.179,0 -0.31,-0.069 -0.392,-0.206 -0.063,-0.104 -0.094,-0.239 -0.094,-0.406 l 0,-0.147 -0.825,0 0,0.13 c 0,0.398 0.102,0.722 0.304,0.972 0.229,0.285 0.551,0.428 0.967,0.428 0.395,0 0.712,-0.134 0.95,-0.401 0.215,-0.242 0.321,-0.542 0.321,-0.901 l 0,-0.236 c 0,-0.348 -0.104,-0.648 -0.312,-0.901 -0.089,-0.108 -0.193,-0.199 -0.313,-0.273 0.25,-0.139 0.443,-0.351 0.58,-0.637 0.071,-0.145 0.107,-0.322 0.107,-0.531 l 0,-0.441 c 0,-0.413 -0.141,-0.753 -0.424,-1.018 -0.27,-0.255 -0.596,-0.383 -0.976,-0.383 -0.372,0 -0.687,0.131 -0.946,0.393 -0.258,0.262 -0.387,0.574 -0.387,0.941 l 0,0.138 0.802,0.063 0.018,-0.197 c 0.012,-0.14 0.061,-0.255 0.149,-0.344 0.088,-0.088 0.201,-0.133 0.342,-0.133"
     style="fill:#7b7979;fill-opacity:1;fill-rule:nonzero;stroke:none"
     id="path5603"
     inkscape:connector-curvature="0" /></g><g
   id="g5605"
   transform="matrix(2,0,0,2,128.88175,788.34883)"><path
     d="m 0,0 0,-0.848 -1.181,-4.745 -0.825,0 1.182,4.745 -1.708,0 0,0.848 L 0,0 z m -4.535,-4.794 c 0.387,0 0.58,0.18 0.58,0.539 l 0,0.33 c 0,0.573 -0.3,0.862 -0.901,0.862 l 0,0.721 c 0.325,0 0.564,0.092 0.718,0.273 0.143,0.163 0.215,0.392 0.215,0.686 l 0,0.13 c 0,0.365 -0.16,0.548 -0.482,0.548 -0.179,0 -0.309,-0.067 -0.392,-0.205 -0.063,-0.105 -0.094,-0.239 -0.094,-0.405 l 0,-0.149 -0.825,0 0,0.13 c 0,0.399 0.102,0.723 0.303,0.973 0.23,0.286 0.552,0.427 0.969,0.427 0.394,0 0.711,-0.133 0.949,-0.4 0.214,-0.242 0.321,-0.542 0.321,-0.901 l 0,-0.237 c 0,-0.347 -0.103,-0.647 -0.312,-0.901 -0.09,-0.106 -0.194,-0.197 -0.313,-0.272 0.251,-0.139 0.443,-0.351 0.58,-0.637 0.071,-0.146 0.107,-0.322 0.107,-0.531 l 0,-0.442 c 0,-0.413 -0.141,-0.752 -0.424,-1.016 -0.27,-0.256 -0.596,-0.383 -0.977,-0.383 -0.371,0 -0.686,0.13 -0.945,0.391 -0.258,0.262 -0.388,0.576 -0.388,0.942 l 0,0.137 0.803,0.063 0.018,-0.196 c 0.011,-0.14 0.061,-0.254 0.149,-0.343 0.088,-0.089 0.201,-0.134 0.341,-0.134"
     style="fill:#7b7979;fill-opacity:1;fill-rule:nonzero;stroke:none"
     id="path5607"
     inkscape:connector-curvature="0" /></g><g
   id="g5613"
   transform="matrix(2,0,0,2,70.796952,834.34883)"><path
     d="m 0,0 c 0,0.134 -0.047,0.248 -0.143,0.344 -0.095,0.095 -0.21,0.142 -0.344,0.142 -0.134,0 -0.247,-0.047 -0.341,-0.142 C -0.921,0.248 -0.968,0.134 -0.968,0 l 0,-3.056 c 0,-0.132 0.047,-0.248 0.14,-0.342 0.094,-0.096 0.207,-0.143 0.341,-0.143 0.134,0 0.249,0.047 0.344,0.143 C -0.047,-3.304 0,-3.188 0,-3.056 L 0,0 z m 0.874,-3.067 c 0,-0.372 -0.131,-0.687 -0.393,-0.946 -0.261,-0.258 -0.575,-0.388 -0.94,-0.388 -0.373,0 -0.688,0.13 -0.949,0.39 -0.26,0.26 -0.39,0.574 -0.39,0.944 l 0,3.049 c 0,0.372 0.131,0.688 0.392,0.948 0.262,0.26 0.577,0.39 0.947,0.39 0.371,0 0.686,-0.131 0.944,-0.392 0.259,-0.262 0.389,-0.577 0.389,-0.946 l 0,-3.049 z m -4.812,-0.474 c 0.386,0 0.58,0.18 0.58,0.54 l 0,0.33 c 0,0.573 -0.301,0.861 -0.902,0.861 l 0,0.722 c 0.325,0 0.564,0.091 0.718,0.273 0.144,0.163 0.215,0.392 0.215,0.686 l 0,0.129 c 0,0.366 -0.16,0.549 -0.482,0.549 -0.178,0 -0.309,-0.069 -0.392,-0.205 -0.063,-0.105 -0.094,-0.24 -0.094,-0.406 l 0,-0.148 -0.825,0 0,0.13 c 0,0.398 0.102,0.723 0.304,0.973 0.229,0.285 0.551,0.427 0.968,0.427 0.394,0 0.711,-0.133 0.949,-0.401 0.214,-0.241 0.321,-0.541 0.321,-0.9 l 0,-0.237 c 0,-0.347 -0.103,-0.648 -0.312,-0.901 -0.089,-0.108 -0.193,-0.198 -0.313,-0.273 0.251,-0.138 0.443,-0.351 0.58,-0.636 0.072,-0.146 0.107,-0.323 0.107,-0.532 l 0,-0.441 c 0,-0.413 -0.141,-0.753 -0.424,-1.018 -0.27,-0.254 -0.595,-0.382 -0.977,-0.382 -0.371,0 -0.686,0.13 -0.944,0.392 -0.259,0.262 -0.389,0.574 -0.389,0.942 l 0,0.137 0.803,0.063 0.018,-0.196 c 0.012,-0.141 0.062,-0.255 0.15,-0.344 0.088,-0.089 0.2,-0.134 0.341,-0.134 m -2.828,-0.803 0,4.304 -0.713,0 0,0.589 c 0.202,0.024 0.395,0.1 0.578,0.229 0.182,0.13 0.314,0.286 0.395,0.471 l 0.588,0 0,-5.593 -0.848,0 z"
     style="fill:#7b7979;fill-opacity:1;fill-rule:nonzero;stroke:none"
     id="path5615"
     inkscape:connector-curvature="0" /></g><g
   id="g5617"
   transform="matrix(2,0,0,2,10.396552,820.27063)"><path
     d="m 0,0 0,-1.199 c 0.083,0.119 0.201,0.211 0.353,0.276 0.079,0.033 0.173,0.049 0.28,0.049 0.368,0 0.64,-0.129 0.817,-0.388 0.151,-0.223 0.227,-0.538 0.227,-0.945 l 0,-1.205 c 0,-0.413 -0.132,-0.752 -0.393,-1.016 -0.25,-0.257 -0.565,-0.384 -0.945,-0.384 -0.369,0 -0.675,0.134 -0.919,0.402 -0.235,0.256 -0.353,0.567 -0.353,0.936 l 0,0.134 0.808,0.063 0.017,-0.193 c 0.021,-0.223 0.112,-0.372 0.272,-0.446 0.048,-0.024 0.099,-0.036 0.152,-0.036 0.346,0 0.518,0.181 0.518,0.54 l 0,1.369 c 0,0.164 -0.06,0.299 -0.178,0.406 C 0.6,-1.586 0.52,-1.561 0.419,-1.561 0.271,-1.561 0.16,-1.619 0.089,-1.734 0.029,-1.836 0,-1.942 0,-2.056 l 0,-0.151 -0.848,0 0,3.055 2.467,0 L 1.619,0 0,0 z m -2.506,-0.405 c 0,0.133 -0.048,0.248 -0.143,0.343 -0.095,0.095 -0.21,0.143 -0.344,0.143 -0.134,0 -0.247,-0.048 -0.341,-0.143 -0.093,-0.095 -0.141,-0.21 -0.141,-0.343 l 0,-3.056 c 0,-0.133 0.048,-0.248 0.141,-0.343 0.094,-0.095 0.207,-0.142 0.341,-0.142 0.134,0 0.249,0.047 0.344,0.142 0.095,0.095 0.143,0.21 0.143,0.343 l 0,3.056 z m 0.873,-3.069 c 0,-0.371 -0.131,-0.686 -0.392,-0.945 -0.262,-0.258 -0.576,-0.388 -0.941,-0.388 -0.373,0 -0.688,0.13 -0.948,0.391 -0.261,0.259 -0.391,0.574 -0.391,0.942 l 0,3.051 c 0,0.371 0.131,0.688 0.393,0.947 0.262,0.261 0.577,0.391 0.946,0.391 0.371,0 0.687,-0.131 0.945,-0.393 0.258,-0.261 0.388,-0.577 0.388,-0.945 l 0,-3.051 z m -4.259,-1.275 0,4.304 -0.713,0 0,0.589 c 0.202,0.023 0.395,0.1 0.578,0.229 0.182,0.129 0.314,0.286 0.395,0.471 l 0.588,0 0,-5.593 -0.848,0 z"
     style="fill:#7b7979;fill-opacity:1;fill-rule:nonzero;stroke:none"
     id="path5619"
     inkscape:connector-curvature="0" /></g><g
   id="g5629"
   transform="matrix(2,0,0,2,-47.494028,815.12423)"><path
     d="m 0,0 c 0,0.134 -0.047,0.248 -0.143,0.344 -0.095,0.095 -0.21,0.142 -0.344,0.142 -0.134,0 -0.247,-0.047 -0.341,-0.142 C -0.921,0.248 -0.968,0.134 -0.968,0 l 0,-3.056 c 0,-0.132 0.047,-0.248 0.14,-0.342 0.094,-0.096 0.207,-0.143 0.341,-0.143 0.134,0 0.249,0.047 0.344,0.143 C -0.047,-3.304 0,-3.188 0,-3.056 L 0,0 z m 0.874,-3.067 c 0,-0.372 -0.131,-0.687 -0.393,-0.946 -0.261,-0.258 -0.575,-0.388 -0.94,-0.388 -0.373,0 -0.688,0.13 -0.949,0.39 -0.26,0.26 -0.39,0.574 -0.39,0.944 l 0,3.049 c 0,0.372 0.131,0.688 0.392,0.948 0.262,0.26 0.577,0.39 0.947,0.39 0.371,0 0.686,-0.131 0.945,-0.392 0.258,-0.262 0.388,-0.576 0.388,-0.946 l 0,-3.049 z M -3.399,0 c 0,0.134 -0.048,0.248 -0.143,0.344 -0.095,0.095 -0.21,0.142 -0.344,0.142 -0.134,0 -0.247,-0.047 -0.341,-0.142 C -4.32,0.248 -4.368,0.134 -4.368,0 l 0,-3.056 c 0,-0.132 0.048,-0.248 0.141,-0.342 0.094,-0.096 0.207,-0.143 0.341,-0.143 0.134,0 0.249,0.047 0.344,0.143 0.095,0.094 0.143,0.21 0.143,0.342 l 0,3.056 z m 0.873,-3.067 c 0,-0.372 -0.13,-0.687 -0.392,-0.946 -0.262,-0.258 -0.576,-0.388 -0.941,-0.388 -0.372,0 -0.687,0.13 -0.948,0.39 -0.261,0.26 -0.39,0.574 -0.39,0.944 l 0,3.049 c 0,0.372 0.131,0.688 0.392,0.948 0.262,0.26 0.576,0.39 0.946,0.39 0.372,0 0.687,-0.131 0.945,-0.392 0.259,-0.262 0.388,-0.576 0.388,-0.946 l 0,-3.049 z m -4.259,-1.277 0,4.304 -0.713,0 0,0.589 c 0.202,0.024 0.395,0.1 0.578,0.229 0.182,0.13 0.314,0.286 0.395,0.471 l 0.588,0 0,-5.593 -0.848,0 z"
     style="fill:#7b7979;fill-opacity:1;fill-rule:nonzero;stroke:none"
     id="path5631"
     inkscape:connector-curvature="0" /></g><g
   id="g5633"
   transform="matrix(2,0,0,2,-108.80563,789.27463)"><path
     d="m 0,0 c -0.006,0.384 -0.126,0.625 -0.361,0.723 -0.054,0.024 -0.117,0.036 -0.192,0.036 -0.146,0 -0.264,-0.04 -0.356,-0.121 C -0.984,0.572 -1.037,0.488 -1.069,0.386 -1.1,0.283 -1.113,0.154 -1.106,0 c 0.009,-0.244 0.047,-0.419 0.116,-0.525 0.089,-0.144 0.234,-0.215 0.437,-0.215 0.202,0 0.349,0.075 0.441,0.226 C -0.035,-0.385 0.003,-0.214 0,0 m -0.027,-2.462 c 0,0.333 -0.076,0.556 -0.227,0.669 -0.073,0.053 -0.172,0.08 -0.3,0.08 -0.223,0 -0.374,-0.095 -0.455,-0.285 -0.047,-0.115 -0.071,-0.271 -0.071,-0.464 l 0,-0.267 c 0,-0.184 0.057,-0.333 0.169,-0.446 0.096,-0.095 0.215,-0.145 0.357,-0.151 0.229,0.012 0.388,0.125 0.477,0.339 0.033,0.071 0.05,0.157 0.05,0.258 l 0,0.267 z m 0.842,-0.396 c 0,-0.371 -0.131,-0.687 -0.392,-0.946 -0.262,-0.258 -0.577,-0.387 -0.945,-0.387 l -0.067,0 c -0.372,0 -0.687,0.129 -0.945,0.391 -0.259,0.262 -0.388,0.576 -0.388,0.942 l 0,0.508 c 0,0.342 0.113,0.641 0.343,0.896 0.098,0.11 0.212,0.201 0.343,0.272 -0.226,0.117 -0.401,0.31 -0.526,0.58 -0.062,0.14 -0.093,0.315 -0.093,0.527 l 0,0.303 c 0,0.362 0.106,0.663 0.321,0.901 0.238,0.267 0.552,0.4 0.945,0.4 l 0.067,0 c 0.396,0 0.712,-0.133 0.95,-0.4 C 0.643,0.887 0.749,0.587 0.749,0.228 l 0,-0.303 C 0.749,-0.423 0.645,-0.712 0.436,-0.941 0.344,-1.042 0.242,-1.122 0.129,-1.182 0.379,-1.321 0.571,-1.533 0.708,-1.819 0.779,-1.965 0.815,-2.142 0.815,-2.35 l 0,-0.508 z m -4.806,0.78 -10e-4,1.745 -0.695,-1.746 0.696,0.001 z m -1.49,0 1.49,3.541 0.843,0 0,-3.541 0.539,0 0,-0.848 -0.539,0 0,-1.204 -0.843,0 0,1.204 -1.49,0 0,0.848 z"
     style="fill:#7b7979;fill-opacity:1;fill-rule:nonzero;stroke:none"
     id="path5635"
     inkscape:connector-curvature="0" /></g><g
   id="g5645"
   transform="matrix(2,0,0,2,-167.87783,785.87023)"><path
     d="m 0,0 c -0.006,0.384 -0.126,0.625 -0.361,0.723 -0.053,0.024 -0.117,0.036 -0.191,0.036 -0.147,0 -0.265,-0.04 -0.357,-0.121 C -0.984,0.572 -1.037,0.488 -1.068,0.386 -1.1,0.283 -1.112,0.154 -1.106,0 c 0.009,-0.244 0.047,-0.419 0.116,-0.525 0.089,-0.144 0.235,-0.215 0.438,-0.215 0.201,0 0.348,0.075 0.44,0.226 C -0.034,-0.385 0.003,-0.214 0,0 m -0.027,-2.462 c 0,0.333 -0.076,0.556 -0.227,0.669 -0.072,0.053 -0.172,0.08 -0.299,0.08 -0.223,0 -0.375,-0.095 -0.456,-0.285 -0.047,-0.115 -0.071,-0.271 -0.071,-0.464 l 0,-0.267 c 0,-0.184 0.057,-0.333 0.17,-0.446 0.095,-0.095 0.214,-0.145 0.357,-0.151 0.229,0.012 0.388,0.124 0.477,0.339 0.032,0.071 0.049,0.157 0.049,0.258 l 0,0.267 z m 0.842,-0.396 c 0,-0.372 -0.13,-0.687 -0.392,-0.946 -0.262,-0.258 -0.577,-0.387 -0.945,-0.387 l -0.067,0 c -0.371,0 -0.687,0.129 -0.945,0.391 -0.258,0.262 -0.388,0.576 -0.388,0.942 l 0,0.508 c 0,0.342 0.114,0.641 0.343,0.896 0.099,0.11 0.212,0.201 0.343,0.272 -0.226,0.117 -0.4,0.31 -0.526,0.579 -0.062,0.141 -0.093,0.316 -0.093,0.528 l 0,0.303 c 0,0.362 0.106,0.663 0.321,0.901 0.238,0.267 0.553,0.4 0.945,0.4 l 0.067,0 c 0.396,0 0.713,-0.133 0.95,-0.4 C 0.643,0.887 0.75,0.587 0.75,0.228 l 0,-0.303 C 0.75,-0.423 0.645,-0.712 0.437,-0.941 0.345,-1.042 0.242,-1.122 0.129,-1.182 0.379,-1.321 0.572,-1.533 0.708,-1.819 0.78,-1.965 0.815,-2.142 0.815,-2.35 l 0,-0.508 z m -4.869,-0.473 c 0.386,0 0.579,0.18 0.579,0.54 l 0,0.329 c 0,0.573 -0.3,0.861 -0.9,0.861 l 0,0.723 c 0.324,0 0.563,0.091 0.717,0.272 0.144,0.163 0.215,0.392 0.215,0.686 l 0,0.13 c 0,0.365 -0.16,0.549 -0.481,0.549 -0.18,0 -0.31,-0.069 -0.393,-0.206 -0.062,-0.105 -0.094,-0.24 -0.094,-0.406 l 0,-0.147 -0.825,0 0,0.129 c 0,0.399 0.102,0.723 0.304,0.973 0.229,0.286 0.551,0.427 0.968,0.427 0.394,0 0.712,-0.133 0.949,-0.4 0.215,-0.242 0.321,-0.542 0.321,-0.901 l 0,-0.237 c 0,-0.347 -0.103,-0.647 -0.312,-0.901 -0.09,-0.107 -0.193,-0.197 -0.312,-0.272 0.25,-0.139 0.442,-0.351 0.579,-0.637 0.072,-0.146 0.107,-0.323 0.107,-0.531 l 0,-0.441 c 0,-0.414 -0.141,-0.753 -0.424,-1.018 -0.27,-0.255 -0.595,-0.382 -0.976,-0.382 -0.372,0 -0.687,0.129 -0.946,0.391 -0.258,0.262 -0.387,0.575 -0.387,0.942 l 0,0.137 0.802,0.064 0.018,-0.197 c 0.011,-0.14 0.062,-0.254 0.149,-0.343 0.088,-0.089 0.202,-0.134 0.342,-0.134"
     style="fill:#7b7979;fill-opacity:1;fill-rule:nonzero;stroke:none"
     id="path5647"
     inkscape:connector-curvature="0" /></g><g
   id="g5649"
   transform="matrix(2,0,0,2,-227.85643,800.51883)"><path
     d="m 0,0 c 0,0.133 -0.047,0.248 -0.143,0.343 -0.095,0.095 -0.21,0.142 -0.344,0.142 -0.134,0 -0.247,-0.047 -0.341,-0.142 C -0.921,0.248 -0.968,0.133 -0.968,0 l 0,-3.056 c 0,-0.133 0.047,-0.248 0.14,-0.343 0.094,-0.095 0.207,-0.143 0.341,-0.143 0.134,0 0.249,0.048 0.344,0.143 C -0.047,-3.304 0,-3.189 0,-3.056 L 0,0 z m 0.874,-3.068 c 0,-0.372 -0.131,-0.687 -0.393,-0.946 -0.261,-0.258 -0.575,-0.388 -0.94,-0.388 -0.373,0 -0.688,0.13 -0.949,0.39 -0.26,0.26 -0.39,0.575 -0.39,0.944 l 0,3.05 c 0,0.372 0.131,0.688 0.392,0.948 0.262,0.259 0.577,0.389 0.947,0.389 0.371,0 0.686,-0.131 0.944,-0.392 0.259,-0.261 0.389,-0.576 0.389,-0.945 l 0,-3.05 z m -3.252,4.321 0,-0.848 -1.182,-4.745 -0.824,0 1.181,4.745 -1.708,0 0,0.848 2.533,0 z"
     style="fill:#7b7979;fill-opacity:1;fill-rule:nonzero;stroke:none"
     id="path5651"
     inkscape:connector-curvature="0" /></g><path
   d="m -272.98683,751.10743 1136.48398,0 0,-8.672 -1136.48398,0 0,8.672 z"
   style="fill:#a7a5a6;fill-opacity:1;fill-rule:evenodd;stroke:none"
   id="path5653"
   inkscape:connector-curvature="0" /><path
   d="m 122.74515,751.10743 236.62,0 0,-8.672 -236.62,0 0,8.672 z"
   style="fill:#f25871;fill-opacity:1;fill-rule:evenodd;stroke:none"
   id="path5655"
   inkscape:connector-curvature="0" /><path
   d="m 585.45315,751.10743 128.22,0 0,-8.672 -128.22,0 0,8.672 z"
   style="fill:#f25871;fill-opacity:1;fill-rule:evenodd;stroke:none"
   id="path5657"
   inkscape:connector-curvature="0" /><path
   d="m -232.18283,751.10743 118.31,0 0,-8.672 -118.31,0 0,8.672 z"
   style="fill:#f25871;fill-opacity:1;fill-rule:evenodd;stroke:none"
   id="path5659"
   inkscape:connector-curvature="0" /><g
   id="g5661"
   transform="matrix(2,0,0,2,-232.18263,757.91923)"><path
     d="m 0,0 c 3.078,0 5.575,-2.496 5.575,-5.574 0,-3.079 -2.497,-5.575 -5.575,-5.575 -3.079,0 -5.575,2.496 -5.575,5.575 C -5.575,-2.496 -3.079,0 0,0"
     style="fill:#f25871;fill-opacity:1;fill-rule:evenodd;stroke:none"
     id="path5663"
     inkscape:connector-curvature="0" /></g><g
   id="g5665"
   transform="matrix(2,0,0,2,-113.87302,757.91923)"><path
     d="m 0,0 c 3.078,0 5.575,-2.496 5.575,-5.574 0,-3.079 -2.497,-5.575 -5.575,-5.575 -3.079,0 -5.575,2.496 -5.575,5.575 C -5.575,-2.496 -3.079,0 0,0"
     style="fill:#f25871;fill-opacity:1;fill-rule:evenodd;stroke:none"
     id="path5667"
     inkscape:connector-curvature="0" /></g><g
   id="g5669"
   transform="matrix(2,0,0,2,4.436552,757.91923)"><path
     d="m 0,0 c 3.078,0 5.575,-2.496 5.575,-5.574 0,-3.079 -2.497,-5.575 -5.575,-5.575 -3.079,0 -5.575,2.496 -5.575,5.575 C -5.575,-2.496 -3.079,0 0,0"
     style="fill:#a7a5a6;fill-opacity:1;fill-rule:evenodd;stroke:none"
     id="path5671"
     inkscape:connector-curvature="0" /></g><g
   id="g5673"
   transform="matrix(2,0,0,2,122.74615,757.91923)"><path
     d="m 0,0 c 3.078,0 5.575,-2.496 5.575,-5.574 0,-3.079 -2.497,-5.575 -5.575,-5.575 -3.079,0 -5.575,2.496 -5.575,5.575 C -5.575,-2.496 -3.079,0 0,0"
     style="fill:#f25871;fill-opacity:1;fill-rule:evenodd;stroke:none"
     id="path5675"
     inkscape:connector-curvature="0" /></g><g
   id="g5677"
   transform="matrix(2,0,0,2,241.05575,757.91923)"><path
     d="m 0,0 c 3.079,0 5.575,-2.496 5.575,-5.574 0,-3.079 -2.496,-5.575 -5.575,-5.575 -3.078,0 -5.575,2.496 -5.575,5.575 C -5.575,-2.496 -3.078,0 0,0"
     style="fill:#f25871;fill-opacity:1;fill-rule:evenodd;stroke:none"
     id="path5679"
     inkscape:connector-curvature="0" /></g><g
   id="g5681"
   transform="matrix(2,0,0,2,359.36615,757.91923)"><path
     d="m 0,0 c 3.078,0 5.574,-2.496 5.574,-5.574 0,-3.079 -2.496,-5.575 -5.574,-5.575 -3.079,0 -5.575,2.496 -5.575,5.575 C -5.575,-2.496 -3.079,0 0,0"
     style="fill:#f25871;fill-opacity:1;fill-rule:evenodd;stroke:none"
     id="path5683"
     inkscape:connector-curvature="0" /></g><g
   id="g5685"
   transform="matrix(2,0,0,2,477.67475,757.91923)"><path
     d="m 0,0 c 3.078,0 5.575,-2.496 5.575,-5.574 0,-3.079 -2.497,-5.575 -5.575,-5.575 -3.078,0 -5.575,2.496 -5.575,5.575 C -5.575,-2.496 -3.078,0 0,0"
     style="fill:#a7a5a6;fill-opacity:1;fill-rule:evenodd;stroke:none"
     id="path5687"
     inkscape:connector-curvature="0" /></g><g
   id="g5689"
   transform="matrix(2,0,0,2,595.98535,757.91923)"><path
     d="m 0,0 c 3.078,0 5.574,-2.496 5.574,-5.574 0,-3.079 -2.496,-5.575 -5.574,-5.575 -3.079,0 -5.575,2.496 -5.575,5.575 C -5.575,-2.496 -3.079,0 0,0"
     style="fill:#f25871;fill-opacity:1;fill-rule:evenodd;stroke:none"
     id="path5691"
     inkscape:connector-curvature="0" /></g><g
   id="g5693"
   transform="matrix(2,0,0,2,714.29395,757.91923)"><path
     d="m 0,0 c 3.079,0 5.575,-2.496 5.575,-5.574 0,-3.079 -2.496,-5.575 -5.575,-5.575 -3.078,0 -5.575,2.496 -5.575,5.575 C -5.575,-2.496 -3.078,0 0,0"
     style="fill:#f25871;fill-opacity:1;fill-rule:evenodd;stroke:none"
     id="path5695"
     inkscape:connector-curvature="0" /></g><g
   id="g5697"
   transform="matrix(2,0,0,2,832.60455,757.91923)"><path
     d="m 0,0 c 3.078,0 5.574,-2.496 5.574,-5.574 0,-3.079 -2.496,-5.575 -5.574,-5.575 -3.079,0 -5.575,2.496 -5.575,5.575 C -5.575,-2.496 -3.079,0 0,0"
     style="fill:#a7a5a6;fill-opacity:1;fill-rule:evenodd;stroke:none"
     id="path5699"
     inkscape:connector-curvature="0" /></g><g
   id="g5701"
   transform="matrix(2,0,0,2,-232.81743,781.18663)"><path
     d="m 0,0 c -0.588,0.175 -0.922,0.793 -0.748,1.382 0.176,0.588 0.794,0.922 1.382,0.747 l 29.373,-8.838 29.17,2.925 29.416,13.277 c 0.149,0.068 0.304,0.099 0.457,0.099 l 29.449,1.476 29.488,5.915 c 0.335,0.067 0.664,-0.024 0.911,-0.222 l 0.001,0.001 29.298,-23.507 29.094,-1.46 29.48,4.435 29.578,4.451 c 0.165,0.024 0.327,0.011 0.477,-0.033 l 29.189,-7.319 29.241,11.732 c 0.136,0.054 0.275,0.08 0.413,0.08 l 0,0.003 29.295,0 29.325,16.176 c 0.025,0.015 0.052,0.028 0.078,0.039 l 29.577,13.35 c 0.253,0.114 0.528,0.126 0.775,0.052 l 0,10e-4 29.209,-8.789 29.215,11.72 c 0.229,0.092 0.471,0.102 0.694,0.044 l 29.187,-5.855 29.274,11.745 c 0.568,0.227 1.215,-0.049 1.443,-0.617 0.228,-0.57 -0.049,-1.216 -0.617,-1.444 L 503.546,29.7 l 0,0.002 c -0.193,-0.078 -0.41,-0.102 -0.63,-0.058 l -29.251,5.868 -29.228,-11.727 c -0.236,-0.107 -0.508,-0.133 -0.776,-0.053 L 414.479,32.514 385.32,19.353 355.841,3.091 c -0.172,-0.109 -0.376,-0.173 -0.595,-0.173 l -29.37,0 -29.326,-11.765 c -0.221,-0.1 -0.475,-0.13 -0.728,-0.066 l -29.36,7.362 -29.36,-4.418 -29.578,-4.449 0,0.002 c -0.07,-0.011 -0.143,-0.015 -0.217,-0.011 l -29.556,1.482 c -0.234,0.007 -0.468,0.087 -0.665,0.245 L 147.912,14.709 118.905,8.89 C 118.832,8.871 118.757,8.859 118.679,8.855 L 89.318,7.384 59.928,-5.882 l 0,10e-4 C 59.82,-5.929 59.704,-5.961 59.581,-5.973 L 30.068,-8.933 C 29.909,-8.958 29.742,-8.949 29.578,-8.9 L 0,0 z"
     style="fill:#f25871;fill-opacity:1;fill-rule:nonzero;stroke:none"
     id="path5703"
     inkscape:connector-curvature="0" /></g><g
   id="g5705"
   transform="matrix(2,0,0,2,-232.18263,789.20243)"><path
     d="m 0,0 c 1.705,0 3.088,-1.383 3.088,-3.088 0,-1.705 -1.383,-3.088 -3.088,-3.088 -1.706,0 -3.088,1.383 -3.088,3.088 C -3.088,-1.383 -1.706,0 0,0"
     style="fill:#f25871;fill-opacity:1;fill-rule:evenodd;stroke:none"
     id="path5707"
     inkscape:connector-curvature="0" /></g><g
   id="g5709"
   transform="matrix(2,0,0,2,-173.02823,771.69263)"><path
     d="m 0,0 c 1.706,0 3.088,-1.384 3.088,-3.088 0,-1.706 -1.382,-3.089 -3.088,-3.089 -1.705,0 -3.088,1.383 -3.088,3.089 C -3.088,-1.384 -1.705,0 0,0"
     style="fill:#f25871;fill-opacity:1;fill-rule:evenodd;stroke:none"
     id="path5711"
     inkscape:connector-curvature="0" /></g><g
   id="g5713"
   transform="matrix(2,0,0,2,-113.76163,777.67503)"><path
     d="m 0,0 c 1.706,0 3.088,-1.383 3.088,-3.088 0,-1.705 -1.382,-3.088 -3.088,-3.088 -1.705,0 -3.088,1.383 -3.088,3.088 C -3.088,-1.383 -1.705,0 0,0"
     style="fill:#f25871;fill-opacity:1;fill-rule:evenodd;stroke:none"
     id="path5715"
     inkscape:connector-curvature="0" /></g><g
   id="g5717"
   transform="matrix(2,0,0,2,-54.718628,804.32543)"><path
     d="m 0,0 c 1.706,0 3.088,-1.384 3.088,-3.089 0,-1.705 -1.382,-3.088 -3.088,-3.088 -1.705,0 -3.088,1.383 -3.088,3.088 C -3.088,-1.384 -1.705,0 0,0"
     style="fill:#f25871;fill-opacity:1;fill-rule:evenodd;stroke:none"
     id="path5719"
     inkscape:connector-curvature="0" /></g><g
   id="g5721"
   transform="matrix(2,0,0,2,5.177752,806.49523)"><path
     d="m 0,0 c 1.706,0 3.088,-1.383 3.088,-3.088 0,-1.705 -1.382,-3.089 -3.088,-3.089 -1.705,0 -3.088,1.384 -3.088,3.089 C -3.088,-1.383 -1.705,0 0,0"
     style="fill:#f25871;fill-opacity:1;fill-rule:evenodd;stroke:none"
     id="path5723"
     inkscape:connector-curvature="0" /></g><g
   id="g5725"
   transform="matrix(2,0,0,2,63.590752,819.15743)"><path
     d="m 0,0 c 1.706,0 3.088,-1.383 3.088,-3.088 0,-1.706 -1.382,-3.089 -3.088,-3.089 -1.705,0 -3.088,1.383 -3.088,3.089 C -3.088,-1.383 -1.705,0 0,0"
     style="fill:#f25871;fill-opacity:1;fill-rule:evenodd;stroke:none"
     id="path5727"
     inkscape:connector-curvature="0" /></g><g
   id="g5729"
   transform="matrix(2,0,0,2,122.74615,771.69263)"><path
     d="m 0,0 c 1.705,0 3.088,-1.384 3.088,-3.088 0,-1.706 -1.383,-3.089 -3.088,-3.089 -1.706,0 -3.088,1.383 -3.088,3.089 C -3.088,-1.384 -1.706,0 0,0"
     style="fill:#f25871;fill-opacity:1;fill-rule:evenodd;stroke:none"
     id="path5731"
     inkscape:connector-curvature="0" /></g><g
   id="g5733"
   transform="matrix(2,0,0,2,181.90035,768.72583)"><path
     d="m 0,0 c 1.706,0 3.088,-1.383 3.088,-3.088 0,-1.706 -1.382,-3.089 -3.088,-3.089 -1.705,0 -3.088,1.383 -3.088,3.089 C -3.088,-1.383 -1.705,0 0,0"
     style="fill:#f25871;fill-opacity:1;fill-rule:evenodd;stroke:none"
     id="path5735"
     inkscape:connector-curvature="0" /></g><g
   id="g5737"
   transform="matrix(2,0,0,2,241.79795,777.67503)"><path
     d="m 0,0 c 1.705,0 3.088,-1.383 3.088,-3.088 0,-1.705 -1.383,-3.088 -3.088,-3.088 -1.706,0 -3.088,1.383 -3.088,3.088 C -3.088,-1.383 -1.706,0 0,0"
     style="fill:#f25871;fill-opacity:1;fill-rule:evenodd;stroke:none"
     id="path5739"
     inkscape:connector-curvature="0" /></g><g
   id="g5741"
   transform="matrix(2,0,0,2,300.20995,786.52463)"><path
     d="m 0,0 c 1.705,0 3.089,-1.383 3.089,-3.088 0,-1.705 -1.384,-3.088 -3.089,-3.088 -1.705,0 -3.088,1.383 -3.088,3.088 C -3.088,-1.383 -1.705,0 0,0"
     style="fill:#f25871;fill-opacity:1;fill-rule:evenodd;stroke:none"
     id="path5743"
     inkscape:connector-curvature="0" /></g><g
   id="g5745"
   transform="matrix(2,0,0,2,359.36615,771.69263)"><path
     d="m 0,0 c 1.705,0 3.088,-1.384 3.088,-3.088 0,-1.706 -1.383,-3.089 -3.088,-3.089 -1.706,0 -3.089,1.383 -3.089,3.089 C -3.089,-1.384 -1.706,0 0,0"
     style="fill:#f25871;fill-opacity:1;fill-rule:evenodd;stroke:none"
     id="path5747"
     inkscape:connector-curvature="0" /></g><g
   id="g5749"
   transform="matrix(2,0,0,2,418.52055,795.42503)"><path
     d="m 0,0 c 1.705,0 3.088,-1.383 3.088,-3.089 0,-1.705 -1.383,-3.088 -3.088,-3.088 -1.706,0 -3.088,1.383 -3.088,3.088 C -3.088,-1.383 -1.706,0 0,0"
     style="fill:#f25871;fill-opacity:1;fill-rule:evenodd;stroke:none"
     id="path5751"
     inkscape:connector-curvature="0" /></g><g
   id="g5753"
   transform="matrix(2,0,0,2,477.67475,795.42503)"><path
     d="m 0,0 c 1.705,0 3.088,-1.383 3.088,-3.089 0,-1.705 -1.383,-3.088 -3.088,-3.088 -1.705,0 -3.088,1.383 -3.088,3.088 C -3.088,-1.383 -1.705,0 0,0"
     style="fill:#f25871;fill-opacity:1;fill-rule:evenodd;stroke:none"
     id="path5755"
     inkscape:connector-curvature="0" /></g><g
   id="g5757"
   transform="matrix(2,0,0,2,536.82915,828.05783)"><path
     d="m 0,0 c 1.706,0 3.089,-1.383 3.089,-3.089 0,-1.705 -1.383,-3.088 -3.089,-3.088 -1.705,0 -3.088,1.383 -3.088,3.088 C -3.088,-1.383 -1.705,0 0,0"
     style="fill:#f25871;fill-opacity:1;fill-rule:evenodd;stroke:none"
     id="path5759"
     inkscape:connector-curvature="0" /></g><g
   id="g5761"
   transform="matrix(2,0,0,2,595.98535,854.04803)"><path
     d="m 0,0 c 1.705,0 3.088,-1.383 3.088,-3.089 0,-1.705 -1.383,-3.088 -3.088,-3.088 -1.706,0 -3.089,1.383 -3.089,3.088 C -3.089,-1.383 -1.706,0 0,0"
     style="fill:#f25871;fill-opacity:1;fill-rule:evenodd;stroke:none"
     id="path5763"
     inkscape:connector-curvature="0" /></g><g
   id="g5765"
   transform="matrix(2,0,0,2,655.13955,836.95623)"><path
     d="m 0,0 c 1.705,0 3.088,-1.383 3.088,-3.088 0,-1.705 -1.383,-3.088 -3.088,-3.088 -1.705,0 -3.088,1.383 -3.088,3.088 C -3.088,-1.383 -1.705,0 0,0"
     style="fill:#f25871;fill-opacity:1;fill-rule:evenodd;stroke:none"
     id="path5767"
     inkscape:connector-curvature="0" /></g><g
   id="g5769"
   transform="matrix(2,0,0,2,714.29395,860.69063)"><path
     d="m 0,0 c 1.705,0 3.088,-1.384 3.088,-3.089 0,-1.705 -1.383,-3.088 -3.088,-3.088 -1.705,0 -3.088,1.383 -3.088,3.088 C -3.088,-1.384 -1.705,0 0,0"
     style="fill:#f25871;fill-opacity:1;fill-rule:evenodd;stroke:none"
     id="path5771"
     inkscape:connector-curvature="0" /></g><g
   id="g5773"
   transform="matrix(2,0,0,2,773.45015,848.82343)"><path
     d="m 0,0 c 1.705,0 3.088,-1.383 3.088,-3.088 0,-1.706 -1.383,-3.089 -3.088,-3.089 -1.706,0 -3.089,1.383 -3.089,3.089 C -3.089,-1.383 -1.706,0 0,0"
     style="fill:#f25871;fill-opacity:1;fill-rule:evenodd;stroke:none"
     id="path5775"
     inkscape:connector-curvature="0" /></g><g
   id="g5777"
   transform="matrix(2,0,0,2,832.60455,872.55583)"><path
     d="m 0,0 c 1.705,0 3.088,-1.383 3.088,-3.088 0,-1.706 -1.383,-3.089 -3.088,-3.089 -1.705,0 -3.088,1.383 -3.088,3.089 C -3.088,-1.383 -1.705,0 0,0"
     style="fill:#f25871;fill-opacity:1;fill-rule:evenodd;stroke:none"
     id="path5779"
     inkscape:connector-curvature="0" /></g><text
   xml:space="preserve"
   style="font-size:64px;font-style:normal;font-variant:normal;font-weight:600;font-stretch:normal;line-height:125%;letter-spacing:0px;word-spacing:0px;fill:#7b7979;fill-opacity:1;stroke:none;font-family:Sans;-inkscape-font-specification:Open Sans Semi-Bold"
   x="-263.81076"
   y="-715.26062"
   id="text8717"
   sodipodi:linespacing="125%"
   transform="scale(1,-1)"><tspan
     sodipodi:role="line"
     id="tspan8719"
     x="-263.81076"
     y="-715.26062"
     style="font-size:12.80000019px;font-style:normal;font-variant:normal;font-weight:600;font-stretch:normal;fill:#7b7979;fill-opacity:1;font-family:Open Sans;-inkscape-font-specification:Open Sans Semi-Bold">Nrreport</tspan></text>



<text
   xml:space="preserve"
   style="font-size:64px;font-style:normal;font-variant:normal;font-weight:600;font-stretch:normal;line-height:125%;letter-spacing:0px;word-spacing:0px;fill:#7b7979;fill-opacity:1;stroke:none;font-family:Sans;-inkscape-font-specification:Open Sans Semi-Bold"
   x="-263.52097"
   y="-888.07397"
   id="text8717-2"
   sodipodi:linespacing="125%"
   transform="scale(1,-1)"><tspan
     sodipodi:role="line"
     id="tspan8719-1"
     x="-263.52097"
     y="-888.07397"
     style="font-size:12.80000019px;font-style:normal;font-variant:normal;font-weight:600;font-stretch:normal;fill:#7b7979;fill-opacity:1;font-family:Open Sans;-inkscape-font-specification:Open Sans Semi-Bold">Nrreport</tspan></text>

<text
   xml:space="preserve"
   style="font-size:64px;font-style:normal;font-variant:normal;font-weight:600;font-stretch:normal;line-height:125%;letter-spacing:0px;word-spacing:0px;fill:#7b7979;fill-opacity:1;stroke:none;font-family:Sans;-inkscape-font-specification:Open Sans Semi-Bold"
   x="-144.08556"
   y="-715.04187"
   id="text8717-7"
   sodipodi:linespacing="125%"
   transform="scale(1,-1)"><tspan
     sodipodi:role="line"
     id="tspan8719-4"
     x="-144.08556"
     y="-715.04187"
     style="font-size:12.80000019px;font-style:normal;font-variant:normal;font-weight:600;font-stretch:normal;fill:#7b7979;fill-opacity:1;font-family:Open Sans;-inkscape-font-specification:Open Sans Semi-Bold">sterport</tspan></text>

<text
   xml:space="preserve"
   style="font-size:64px;font-style:normal;font-variant:normal;font-weight:600;font-stretch:normal;line-height:125%;letter-spacing:0px;word-spacing:0px;fill:#7b7979;fill-opacity:1;stroke:none;font-family:Sans;-inkscape-font-specification:Open Sans Semi-Bold"
   x="-144.08556"
   y="-887.85522"
   id="text8717-7-5"
   sodipodi:linespacing="125%"
   transform="scale(1,-1)"><tspan
     sodipodi:role="line"
     id="tspan8719-4-0"
     x="-144.08556"
     y="-887.85522"
     style="font-size:12.80000019px;font-style:normal;font-variant:normal;font-weight:600;font-stretch:normal;fill:#7b7979;fill-opacity:1;font-family:Open Sans;-inkscape-font-specification:Open Sans Semi-Bold">sterport</tspan></text>

<text
   xml:space="preserve"
   style="font-size:64px;font-style:normal;font-variant:normal;font-weight:600;font-stretch:normal;line-height:125%;letter-spacing:0px;word-spacing:0px;fill:#7b7979;fill-opacity:1;stroke:none;font-family:Sans;-inkscape-font-specification:Open Sans Semi-Bold"
   x="-26.1912"
   y="-713.49182"
   id="text8717-7-8"
   sodipodi:linespacing="125%"
   transform="scale(1,-1)"><tspan
     sodipodi:role="line"
     id="tspan8719-4-4"
     x="-26.1912"
     y="-713.49182"
     style="font-size:12.80000019px;font-style:normal;font-variant:normal;font-weight:600;font-stretch:normal;fill:#7b7979;fill-opacity:1;font-family:Open Sans;-inkscape-font-specification:Open Sans Semi-Bold">Nordhavn</tspan></text>
<text
   xml:space="preserve"
   style="font-size:64px;font-style:normal;font-variant:normal;font-weight:600;font-stretch:normal;line-height:125%;letter-spacing:0px;word-spacing:0px;fill:#7b7979;fill-opacity:1;stroke:none;font-family:Sans;-inkscape-font-specification:Open Sans Semi-Bold"
   x="-26.1912"
   y="-886.30518"
   id="text8717-7-8-8"
   sodipodi:linespacing="125%"
   transform="scale(1,-1)"><tspan
     sodipodi:role="line"
     id="tspan8719-4-4-5"
     x="-26.1912"
     y="-886.30518"
     style="font-size:12.80000019px;font-style:normal;font-variant:normal;font-weight:600;font-stretch:normal;fill:#7b7979;fill-opacity:1;font-family:Open Sans;-inkscape-font-specification:Open Sans Semi-Bold">Nordhavn</tspan></text>
<text
   xml:space="preserve"
   style="font-size:64px;font-style:normal;font-variant:normal;font-weight:600;font-stretch:normal;line-height:125%;letter-spacing:0px;word-spacing:0px;fill:#7b7979;fill-opacity:1;stroke:none;font-family:Sans;-inkscape-font-specification:Open Sans Semi-Bold"
   x="83.445335"
   y="-713.6543"
   id="text8717-7-8-9"
   sodipodi:linespacing="125%"
   transform="scale(1,-1)"><tspan
     sodipodi:role="line"
     id="tspan8719-4-4-7"
     x="83.445335"
     y="-713.6543"
     style="font-size:12.80000019px;font-style:normal;font-variant:normal;font-weight:600;font-stretch:normal;fill:#7b7979;fill-opacity:1;font-family:Open Sans;-inkscape-font-specification:Open Sans Semi-Bold">Svanemllen</tspan></text>
<text
   xml:space="preserve"
   style="font-size:64px;font-style:normal;font-variant:normal;font-weight:600;font-stretch:normal;line-height:125%;letter-spacing:0px;word-spacing:0px;fill:#7b7979;fill-opacity:1;stroke:none;font-family:Sans;-inkscape-font-specification:Open Sans Semi-Bold"
   x="83.445335"
   y="-886.46765"
   id="text8717-7-8-9-5"
   sodipodi:linespacing="125%"
   transform="scale(1,-1)"><tspan
     sodipodi:role="line"
     id="tspan8719-4-4-7-7"
     x="83.445335"
     y="-886.46765"
     style="font-size:12.80000019px;font-style:normal;font-variant:normal;font-weight:600;font-stretch:normal;fill:#7b7979;fill-opacity:1;font-family:Open Sans;-inkscape-font-specification:Open Sans Semi-Bold">Svanemllen</tspan></text>
<text
   xml:space="preserve"
   style="font-size:64px;font-style:normal;font-variant:normal;font-weight:600;font-stretch:normal;line-height:125%;letter-spacing:0px;word-spacing:0px;fill:#7b7979;fill-opacity:1;stroke:none;font-family:Sans;-inkscape-font-specification:Open Sans Semi-Bold"
   x="211.96591"
   y="-714.9668"
   id="text8717-7-8-9-9"
   sodipodi:linespacing="125%"
   transform="scale(1,-1)"><tspan
     sodipodi:role="line"
     id="tspan8719-4-4-7-72"
     x="211.96591"
     y="-714.9668"
     style="font-size:12.80000019px;font-style:normal;font-variant:normal;font-weight:600;font-stretch:normal;fill:#7b7979;fill-opacity:1;font-family:Open Sans;-inkscape-font-specification:Open Sans Semi-Bold">Ryparken</tspan></text>
<text
   xml:space="preserve"
   style="font-size:64px;font-style:normal;font-variant:normal;font-weight:600;font-stretch:normal;line-height:125%;letter-spacing:0px;word-spacing:0px;fill:#7b7979;fill-opacity:1;stroke:none;font-family:Sans;-inkscape-font-specification:Open Sans Semi-Bold"
   x="211.96591"
   y="-887.78015"
   id="text8717-7-8-9-9-4"
   sodipodi:linespacing="125%"
   transform="scale(1,-1)"><tspan
     sodipodi:role="line"
     id="tspan8719-4-4-7-72-4"
     x="211.96591"
     y="-887.78015"
     style="font-size:12.80000019px;font-style:normal;font-variant:normal;font-weight:600;font-stretch:normal;fill:#7b7979;fill-opacity:1;font-family:Open Sans;-inkscape-font-specification:Open Sans Semi-Bold">Ryparken</tspan></text>
<text
   xml:space="preserve"
   style="font-size:64px;font-style:normal;font-variant:normal;font-weight:600;font-stretch:normal;line-height:125%;letter-spacing:0px;word-spacing:0px;fill:#7b7979;fill-opacity:1;stroke:none;font-family:Sans;-inkscape-font-specification:Open Sans Semi-Bold"
   x="334.87976"
   y="-714.9668"
   id="text8717-7-8-9-9-47"
   sodipodi:linespacing="125%"
   transform="scale(1,-1)"><tspan
     sodipodi:role="line"
     id="tspan8719-4-4-7-72-6"
     x="334.87976"
     y="-714.9668"
     style="font-size:12.80000019px;font-style:normal;font-variant:normal;font-weight:600;font-stretch:normal;fill:#7b7979;fill-opacity:1;font-family:Open Sans;-inkscape-font-specification:Open Sans Semi-Bold">Emdrup</tspan></text>
<text
   xml:space="preserve"
   style="font-size:64px;font-style:normal;font-variant:normal;font-weight:600;font-stretch:normal;line-height:125%;letter-spacing:0px;word-spacing:0px;fill:#7b7979;fill-opacity:1;stroke:none;font-family:Sans;-inkscape-font-specification:Open Sans Semi-Bold"
   x="334.87976"
   y="-887.78015"
   id="text8717-7-8-9-9-47-1"
   sodipodi:linespacing="125%"
   transform="scale(1,-1)"><tspan
     sodipodi:role="line"
     id="tspan8719-4-4-7-72-6-4"
     x="334.87976"
     y="-887.78015"
     style="font-size:12.80000019px;font-style:normal;font-variant:normal;font-weight:600;font-stretch:normal;fill:#7b7979;fill-opacity:1;font-family:Open Sans;-inkscape-font-specification:Open Sans Semi-Bold">Emdrup</tspan></text>
<text
   xml:space="preserve"
   style="font-size:64px;font-style:normal;font-variant:normal;font-weight:600;font-stretch:normal;line-height:125%;letter-spacing:0px;word-spacing:0px;fill:#7b7979;fill-opacity:1;stroke:none;font-family:Sans;-inkscape-font-specification:Open Sans Semi-Bold"
   x="445.93683"
   y="-714.54175"
   id="text8717-7-8-9-9-47-6"
   sodipodi:linespacing="125%"
   transform="scale(1,-1)"><tspan
     sodipodi:role="line"
     id="tspan8719-4-4-7-72-6-46"
     x="445.93683"
     y="-714.54175"
     style="font-size:12.80000019px;font-style:normal;font-variant:normal;font-weight:600;font-stretch:normal;fill:#7b7979;fill-opacity:1;font-family:Open Sans;-inkscape-font-specification:Open Sans Semi-Bold">Dyssegrd</tspan></text>
<text
   xml:space="preserve"
   style="font-size:64px;font-style:normal;font-variant:normal;font-weight:600;font-stretch:normal;line-height:125%;letter-spacing:0px;word-spacing:0px;fill:#7b7979;fill-opacity:1;stroke:none;font-family:Sans;-inkscape-font-specification:Open Sans Semi-Bold"
   x="445.93683"
   y="-887.3551"
   id="text8717-7-8-9-9-47-6-5"
   sodipodi:linespacing="125%"
   transform="scale(1,-1)"><tspan
     sodipodi:role="line"
     id="tspan8719-4-4-7-72-6-46-2"
     x="445.93683"
     y="-887.3551"
     style="font-size:12.80000019px;font-style:normal;font-variant:normal;font-weight:600;font-stretch:normal;fill:#7b7979;fill-opacity:1;font-family:Open Sans;-inkscape-font-specification:Open Sans Semi-Bold">Dyssegrd</tspan></text>
<text
   xml:space="preserve"
   style="font-size:64px;font-style:normal;font-variant:normal;font-weight:600;font-stretch:normal;line-height:125%;letter-spacing:0px;word-spacing:0px;fill:#7b7979;fill-opacity:1;stroke:none;font-family:Sans;-inkscape-font-specification:Open Sans Semi-Bold"
   x="570.02142"
   y="-714.9668"
   id="text8717-7-8-9-9-47-6-6"
   sodipodi:linespacing="125%"
   transform="scale(1,-1)"><tspan
     sodipodi:role="line"
     id="tspan8719-4-4-7-72-6-46-3"
     x="570.02142"
     y="-714.9668"
     style="font-size:12.80000019px;font-style:normal;font-variant:normal;font-weight:600;font-stretch:normal;fill:#7b7979;fill-opacity:1;font-family:Open Sans;-inkscape-font-specification:Open Sans Semi-Bold">Vangede</tspan></text>
<text
   xml:space="preserve"
   style="font-size:64px;font-style:normal;font-variant:normal;font-weight:600;font-stretch:normal;line-height:125%;letter-spacing:0px;word-spacing:0px;fill:#7b7979;fill-opacity:1;stroke:none;font-family:Sans;-inkscape-font-specification:Open Sans Semi-Bold"
   x="570.02142"
   y="-887.78015"
   id="text8717-7-8-9-9-47-6-6-8"
   sodipodi:linespacing="125%"
   transform="scale(1,-1)"><tspan
     sodipodi:role="line"
     id="tspan8719-4-4-7-72-6-46-3-0"
     x="570.02142"
     y="-887.78015"
     style="font-size:12.80000019px;font-style:normal;font-variant:normal;font-weight:600;font-stretch:normal;fill:#7b7979;fill-opacity:1;font-family:Open Sans;-inkscape-font-specification:Open Sans Semi-Bold">Vangede</tspan></text>
<text
   xml:space="preserve"
   style="font-size:64px;font-style:normal;font-variant:normal;font-weight:600;font-stretch:normal;line-height:125%;letter-spacing:0px;word-spacing:0px;fill:#7b7979;fill-opacity:1;stroke:none;font-family:Sans;-inkscape-font-specification:Open Sans Semi-Bold"
   x="676.4892"
   y="-713.49182"
   id="text8717-7-8-9-9-47-6-64"
   sodipodi:linespacing="125%"
   transform="scale(1,-1)"><tspan
     sodipodi:role="line"
     id="tspan8719-4-4-7-72-6-46-9"
     x="676.4892"
     y="-713.49182"
     style="font-size:12.80000019px;font-style:normal;font-variant:normal;font-weight:600;font-stretch:normal;fill:#7b7979;fill-opacity:1;font-family:Open Sans;-inkscape-font-specification:Open Sans Semi-Bold">Kildebakken</tspan></text>
<text
   xml:space="preserve"
   style="font-size:64px;font-style:normal;font-variant:normal;font-weight:600;font-stretch:normal;line-height:125%;letter-spacing:0px;word-spacing:0px;fill:#7b7979;fill-opacity:1;stroke:none;font-family:Sans;-inkscape-font-specification:Open Sans Semi-Bold"
   x="676.4892"
   y="-886.30518"
   id="text8717-7-8-9-9-47-6-64-6"
   sodipodi:linespacing="125%"
   transform="scale(1,-1)"><tspan
     sodipodi:role="line"
     id="tspan8719-4-4-7-72-6-46-9-2"
     x="676.4892"
     y="-886.30518"
     style="font-size:12.80000019px;font-style:normal;font-variant:normal;font-weight:600;font-stretch:normal;fill:#7b7979;fill-opacity:1;font-family:Open Sans;-inkscape-font-specification:Open Sans Semi-Bold">Kildebakken</tspan></text>
<text
   xml:space="preserve"
   style="font-size:64px;font-style:normal;font-variant:normal;font-weight:600;font-stretch:normal;line-height:125%;letter-spacing:0px;word-spacing:0px;fill:#7b7979;fill-opacity:1;stroke:none;font-family:Sans;-inkscape-font-specification:Open Sans Semi-Bold"
   x="803.23889"
   y="-714.9668"
   id="text8717-7-8-9-9-47-6-64-4"
   sodipodi:linespacing="125%"
   transform="scale(1,-1)"><tspan
     sodipodi:role="line"
     id="tspan8719-4-4-7-72-6-46-9-4"
     x="803.23889"
     y="-714.9668"
     style="font-size:12.80000019px;font-style:normal;font-variant:normal;font-weight:600;font-stretch:normal;fill:#7b7979;fill-opacity:1;font-family:Open Sans;-inkscape-font-specification:Open Sans Semi-Bold">Buddinge</tspan></text>
<text
   xml:space="preserve"
   style="font-size:64px;font-style:normal;font-variant:normal;font-weight:600;font-stretch:normal;line-height:125%;letter-spacing:0px;word-spacing:0px;fill:#7b7979;fill-opacity:1;stroke:none;font-family:Sans;-inkscape-font-specification:Open Sans Semi-Bold"
   x="803.23889"
   y="-887.78015"
   id="text8717-7-8-9-9-47-6-64-4-0"
   sodipodi:linespacing="125%"
   transform="scale(1,-1)"><tspan
     sodipodi:role="line"
     id="tspan8719-4-4-7-72-6-46-9-4-3"
     x="803.23889"
     y="-887.78015"
     style="font-size:12.80000019px;font-style:normal;font-variant:normal;font-weight:600;font-stretch:normal;fill:#7b7979;fill-opacity:1;font-family:Open Sans;-inkscape-font-specification:Open Sans Semi-Bold">Buddinge</tspan></text>
<flowRoot
   xml:space="preserve"
   id="flowRoot3502"
   style="font-size:7px;font-style:normal;font-weight:normal;line-height:125%;letter-spacing:0px;word-spacing:0px;fill:#000000;fill-opacity:1;stroke:none;font-family:Sans"
   transform="matrix(1.6,0,0,-1.6,-321.72923,944.83189)"><flowRegion
     id="flowRegion3504"><rect
       id="rect3506"
       width="52.536255"
       height="46.532112"
       x="36.70715"
       y="148.93364"
       style="font-size:7px" /></flowRegion><flowPara
     id="flowPara3508"></flowPara></flowRoot><text
   xml:space="preserve"
   style="font-size:11.19999981px;font-style:normal;font-weight:normal;line-height:125%;letter-spacing:0px;word-spacing:0px;fill:#000000;fill-opacity:1;stroke:none;font-family:Sans"
   x="-263.70374"
   y="-690.34338"
   id="text3536"
   sodipodi:linespacing="125%"
   transform="scale(1,-1)"><tspan
     sodipodi:role="line"
     x="-215.59122"
     y="-678.34338"
     id="tspan3538"><tspan
       x="-263.70374"
       y="-690.34338"
       style="font-size:9.60000038px;font-weight:bold"
       id="tspan3540">3 minute</tspan><tspan
       x="-215.59122"
       y="-690.34338"
       style="font-size:9.60000038px"
       id="tspan3542"> </tspan></tspan><tspan
     sodipodi:role="line"
     x="-263.70374"
     y="-666.34338"
     id="tspan3544"><tspan
       x="-263.70374"
       y="-678.34338"
       style="font-size:9.60000038px"
       id="tspan3546">departure delay. </tspan><tspan
       dx="0"
       x="-182.21622"
       y="-678.34338"
       style="font-size:9.60000038px"
       id="tspan3548" /></tspan><tspan
     sodipodi:role="line"
     x="-263.70374"
     y="-654.34338"
     id="tspan3550"><tspan
       x="-263.70374"
       y="-666.34338"
       style="font-size:9.60000038px;font-weight:bold"
       id="tspan3552">1 minute </tspan></tspan><tspan
     sodipodi:role="line"
     x="-263.70374"
     y="-642.34338"
     id="tspan3554"><tspan
       x="-263.70374"
       y="-654.34338"
       style="font-size:9.60000038px"
       id="tspan3556">stationary.</tspan><tspan
       dx="0"
       x="-213.43497"
       y="-654.34338"
       style="font-size:9.60000038px"
       id="tspan3558" /></tspan><tspan
     sodipodi:role="line"
     x="-263.70374"
     y="-630.34338"
     id="tspan3560"><tspan
       x="-263.70374"
       y="-642.34338"
       style="font-size:9.60000038px;font-weight:bold"
       id="tspan3562">22 seconds</tspan><tspan
       dx="0"
       x="-203.04747"
       y="-642.34338"
       style="font-size:9.60000038px;font-weight:bold"
       id="tspan3564" /></tspan><tspan
     sodipodi:role="line"
     x="-263.70374"
     y="0"
     id="tspan3566"><tspan
       x="-263.70374"
       y="-630.34338"
       style="font-size:9.60000038px"
       id="tspan3568">obtained.</tspan></tspan></text>
<text
   xml:space="preserve"
   style="font-size:32px;font-style:normal;font-weight:normal;line-height:125%;letter-spacing:0px;word-spacing:0px;fill:#000000;fill-opacity:1;stroke:none;font-family:Sans"
   x="-276.86984"
   y="-932.60754"
   id="text3570"
   sodipodi:linespacing="125%"
   transform="scale(1,-1)"><tspan
     sodipodi:role="line"
     id="tspan3572"
     x="-276.86984"
     y="-932.60754">Nrreport - Buddinge</tspan></text>
</g></svg>