<?xml version="1.0" encoding="UTF-8" standalone="no"?>
<!-- Created with Inkscape (http://www.inkscape.org/) -->

<svg
   xmlns:dc="http://purl.org/dc/elements/1.1/"
   xmlns:cc="http://creativecommons.org/ns#"
   xmlns:rdf="http://www.w3.org/1999/02/22-rdf-syntax-ns#"
   xmlns:svg="http://www.w3.org/2000/svg"
   xmlns="http://www.w3.org/2000/svg"
   xmlns:sodipodi="http://sodipodi.sourceforge.net/DTD/sodipodi-0.dtd"
   xmlns:inkscape="http://www.inkscape.org/namespaces/inkscape"
   width="770.1969"
   height="507.09894"
   id="svg2"
   version="1.1"
   inkscape:version="0.48.3.1 r9886"
   sodipodi:docname="time-period-selecter-basic-plain2.svg">
  <defs
     id="defs4" />
  <sodipodi:namedview
     id="base"
     pagecolor="#ffffff"
     bordercolor="#666666"
     borderopacity="1.0"
     inkscape:pageopacity="0.0"
     inkscape:pageshadow="2"
     inkscape:zoom="1.25"
     inkscape:cx="547.91503"
     inkscape:cy="257.03753"
     inkscape:document-units="px"
     inkscape:current-layer="layer1"
     showgrid="false"
     inkscape:window-width="1920"
     inkscape:window-height="1030"
     inkscape:window-x="0"
     inkscape:window-y="26"
     inkscape:window-maximized="1"
     fit-margin-top="15"
     fit-margin-left="40"
     fit-margin-right="0"
     fit-margin-bottom="40" />
  <metadata
     id="metadata7">
    <rdf:RDF>
      <cc:Work
         rdf:about="">
        <dc:format>image/svg+xml</dc:format>
        <dc:type
           rdf:resource="http://purl.org/dc/dcmitype/StillImage" />
        <dc:title />
      </cc:Work>
    </rdf:RDF>
  </metadata>
  <g
     inkscape:label="Layer 1"
     inkscape:groupmode="layer"
     id="layer1"
     transform="translate(139.92593,73.507755)">
    <g
       id="tp-slices">
      <g
         id="g7013">
        <path
           transform="matrix(1.5,0,0,1.5,-487.67595,-633.27348)"
           sodipodi:type="arc"
           style="fill:#00ff47;fill-opacity:1;stroke:#ffffff;stroke-width:3;stroke-miterlimit:10;stroke-opacity:1;stroke-dasharray:none"
           id="tp-slice-11"
           sodipodi:cx="391.07144"
           sodipodi:cy="565.2193"
           sodipodi:rx="131.07143"
           sodipodi:ry="117.85714"
           d="m 325.53573,463.15202 a 131.07143,117.85714 0 0 1 65.53571,-15.78986 l 0,117.85714 z"
           sodipodi:start="4.1887902"
           sodipodi:end="4.712389"
           class="tp-slice" />
        <text
           xml:space="preserve"
           style="font-size:40px;font-style:normal;font-weight:normal;line-height:100%;letter-spacing:0px;word-spacing:0px;fill:#000000;fill-opacity:0.2984293;stroke:none;font-family:Sans"
           x="12.556446"
           y="46.196548"
           id="text5866"
           sodipodi:linespacing="100%"
           inkscape:transform-center-y="-169.9964"
           transform="matrix(0.96592583,-0.25881905,0.25881905,0.96592583,0,0)"
           inkscape:transform-center-x="44.682795"><tspan
             sodipodi:role="line"
             id="tspan5868"
             x="12.556446"
             y="46.196548"
             style="font-size:15px;font-weight:bold;line-height:100%;fill:#000000;fill-opacity:0.2984293">11:00</tspan><tspan
             sodipodi:role="line"
             x="12.556446"
             y="61.196548"
             id="tspan5870"
             style="font-size:15px;font-weight:bold;line-height:100%;fill:#000000;fill-opacity:0.2984293">    -</tspan><tspan
             sodipodi:role="line"
             x="12.556446"
             y="76.196548"
             id="tspan5872"
             style="font-size:15px;font-weight:bold;line-height:100%;fill:#000000;fill-opacity:0.2984293">02:00</tspan></text>
      </g>
      <g
         id="g7090">
        <path
           sodipodi:type="arc"
           style="fill:#a4e80c;fill-opacity:1;stroke:#ffffff;stroke-width:3;stroke-miterlimit:10;stroke-opacity:1;stroke-dasharray:none"
           id="tp-slice-10"
           sodipodi:cx="391.07144"
           sodipodi:cy="565.2193"
           sodipodi:rx="131.07143"
           sodipodi:ry="117.85714"
           d="m 277.56025,506.29073 a 131.07143,117.85714 0 0 1 47.97548,-43.13871 l 65.53571,102.06728 z"
           sodipodi:start="3.6651914"
           sodipodi:end="4.1887902"
           transform="matrix(1.4977753,0,0,1.5077569,-486.81003,-637.66197)"
           class="tp-slice" />
        <text
           xml:space="preserve"
           style="font-size:40px;font-style:normal;font-weight:normal;line-height:100%;letter-spacing:0px;word-spacing:0px;fill:#000000;fill-opacity:0.2984293;stroke:none;font-family:Sans"
           x="-115.16293"
           y="26.12425"
           id="text5866-5"
           sodipodi:linespacing="100%"
           inkscape:transform-center-y="-124.63178"
           transform="matrix(0.70710678,-0.70710678,0.70710678,0.70710678,0,0)"
           inkscape:transform-center-x="123.70991"><tspan
             sodipodi:role="line"
             id="tspan5868-3"
             x="-115.16293"
             y="26.12425"
             style="font-size:15px;font-weight:bold;line-height:100%;fill:#000000;fill-opacity:0.2984293">10:00</tspan><tspan
             sodipodi:role="line"
             x="-115.16293"
             y="41.124252"
             id="tspan5870-1"
             style="font-size:15px;font-weight:bold;line-height:100%;fill:#000000;fill-opacity:0.2984293">    -</tspan><tspan
             sodipodi:role="line"
             x="-115.16293"
             y="56.124252"
             id="tspan5872-9"
             style="font-size:15px;font-weight:bold;line-height:100%;fill:#000000;fill-opacity:0.2984293">11:00</tspan></text>
      </g>
      <g
         id="g7083">
        <path
           transform="matrix(1.5,0,0,1.5,-487.67595,-633.27348)"
           sodipodi:type="arc"
           style="fill:#ffca00;fill-opacity:1;stroke:#ffffff;stroke-width:3;stroke-miterlimit:10;stroke-opacity:1;stroke-dasharray:none"
           id="tp-slice-9"
           sodipodi:cx="391.07144"
           sodipodi:cy="565.2193"
           sodipodi:rx="131.07143"
           sodipodi:ry="117.85714"
           d="m 260.00002,565.21929 a 131.07143,117.85714 0 0 1 17.56023,-58.92856 l 113.51119,58.92857 z"
           sodipodi:start="3.1415927"
           sodipodi:end="3.6651914"
           class="tp-slice" />
        <text
           xml:space="preserve"
           style="font-size:40px;font-style:normal;font-weight:normal;line-height:100%;letter-spacing:0px;word-spacing:0px;fill:#000000;fill-opacity:0.2984293;stroke:none;font-family:Sans"
           x="-209.85448"
           y="-52.490726"
           id="text5866-1"
           sodipodi:linespacing="100%"
           inkscape:transform-center-y="-45.87217"
           transform="matrix(0.25881905,-0.96592583,0.96592583,0.25881905,0,0)"
           inkscape:transform-center-x="169.58906"><tspan
             sodipodi:role="line"
             id="tspan5868-55"
             x="-209.85448"
             y="-52.490726"
             style="font-size:15px;font-weight:bold;line-height:100%;fill:#000000;fill-opacity:0.2984293">09:00</tspan><tspan
             sodipodi:role="line"
             x="-209.85448"
             y="-37.490726"
             id="tspan5870-12"
             style="font-size:15px;font-weight:bold;line-height:100%;fill:#000000;fill-opacity:0.2984293">    -</tspan><tspan
             sodipodi:role="line"
             x="-209.85448"
             y="-22.490726"
             id="tspan5872-1"
             style="font-size:15px;font-weight:bold;line-height:100%;fill:#000000;fill-opacity:0.2984293">10:00</tspan></text>
      </g>
      <g
         id="g7076">
        <path
           transform="matrix(1.5,0,0,1.5,-487.67595,-633.27348)"
           sodipodi:type="arc"
           style="fill:#e86f0c;fill-opacity:1;stroke:#ffffff;stroke-width:3;stroke-miterlimit:10;stroke-opacity:1;stroke-dasharray:none"
           id="tp-slice-8"
           sodipodi:cx="391.07144"
           sodipodi:cy="565.2193"
           sodipodi:rx="131.07143"
           sodipodi:ry="117.85714"
           d="m 277.56026,624.14787 a 131.07143,117.85714 0 0 1 -17.56024,-58.92858 l 131.07142,10e-6 z"
           sodipodi:start="2.6179939"
           sodipodi:end="3.1415927"
           class="tp-slice" />
        <text
           xml:space="preserve"
           style="font-size:40px;font-style:normal;font-weight:normal;line-height:100%;letter-spacing:0px;word-spacing:0px;fill:#000000;fill-opacity:0.29803922;stroke:none;font-family:Sans"
           x="202.60718"
           y="144.37958"
           id="text5866-3"
           sodipodi:linespacing="100%"
           transform="matrix(0.25881905,0.96592583,-0.96592583,0.25881905,0,0)"><tspan
             sodipodi:role="line"
             id="tspan5868-551"
             x="202.60718"
             y="144.37958"
             style="font-size:15px;font-weight:bold;line-height:100%;fill:#000000;fill-opacity:0.29803922">08:00</tspan><tspan
             sodipodi:role="line"
             x="202.60718"
             y="159.37958"
             id="tspan5870-88"
             style="font-size:15px;font-weight:bold;line-height:100%;fill:#000000;fill-opacity:0.29803922">    -</tspan><tspan
             sodipodi:role="line"
             x="202.60718"
             y="174.37958"
             id="tspan5872-2"
             style="font-size:15px;font-weight:bold;line-height:100%;fill:#000000;fill-opacity:0.29803922">09:00</tspan></text>
      </g>
      <g
         id="g7069">
        <path
           transform="matrix(1.5,0,0,1.5,-487.67595,-633.27348)"
           sodipodi:type="arc"
           style="fill:#ff0500;fill-opacity:1;stroke:#ffffff;stroke-width:3;stroke-miterlimit:10;stroke-opacity:1;stroke-dasharray:none"
           id="tp-slice-7"
           sodipodi:cx="391.07144"
           sodipodi:cy="565.2193"
           sodipodi:rx="131.07143"
           sodipodi:ry="117.85714"
           d="M 325.53573,667.28658 A 131.07143,117.85714 0 0 1 277.56026,624.14787 L 391.07144,565.2193 z"
           sodipodi:start="2.0943951"
           sodipodi:end="2.6179939"
           class="tp-slice" />
        <text
           xml:space="preserve"
           style="font-size:40px;font-style:normal;font-weight:normal;line-height:100%;letter-spacing:0px;word-spacing:0px;fill:#000000;fill-opacity:0.29803922;stroke:none;font-family:Sans"
           x="187.31598"
           y="256.86151"
           id="text5866-19"
           sodipodi:linespacing="100%"
           transform="matrix(0.70710678,0.70710678,-0.70710678,0.70710678,0,0)"><tspan
             sodipodi:role="line"
             id="tspan5868-27"
             x="187.31598"
             y="256.86151"
             style="font-size:15px;font-weight:bold;line-height:100%;fill:#000000;fill-opacity:0.29803922">07:00</tspan><tspan
             sodipodi:role="line"
             x="187.31598"
             y="271.86151"
             id="tspan5870-09"
             style="font-size:15px;font-weight:bold;line-height:100%;fill:#000000;fill-opacity:0.29803922">    -</tspan><tspan
             sodipodi:role="line"
             x="187.31598"
             y="286.86151"
             id="tspan5872-87"
             style="font-size:15px;font-weight:bold;line-height:100%;fill:#000000;fill-opacity:0.29803922">08:00</tspan></text>
      </g>
      <g
         id="g7062">
        <path
           transform="matrix(1.5,0,0,1.5,-487.67595,-633.27348)"
           sodipodi:type="arc"
           style="fill:#e86f0c;fill-opacity:1;stroke:#ffffff;stroke-width:3;stroke-miterlimit:10;stroke-opacity:1;stroke-dasharray:none"
           id="tp-slice-6"
           sodipodi:cx="391.07144"
           sodipodi:cy="565.2193"
           sodipodi:rx="131.07143"
           sodipodi:ry="117.85714"
           d="M 391.07145,683.07644 A 131.07143,117.85714 0 0 1 325.53573,667.28658 L 391.07144,565.2193 z"
           sodipodi:start="1.5707963"
           sodipodi:end="2.0943951"
           class="tp-slice" />
        <text
           xml:space="preserve"
           style="font-size:40px;font-style:normal;font-weight:normal;line-height:100%;letter-spacing:0px;word-spacing:0px;fill:#000000;fill-opacity:0.29803922;stroke:none;font-family:Sans"
           x="122.70908"
           y="348.49786"
           id="text5866-9"
           sodipodi:linespacing="100%"
           transform="matrix(0.96592583,0.25881905,-0.25881905,0.96592583,0,0)"><tspan
             sodipodi:role="line"
             id="tspan5868-0"
             x="122.70908"
             y="348.49786"
             style="font-size:15px;font-weight:bold;line-height:100%;fill:#000000;fill-opacity:0.29803922">06:00</tspan><tspan
             sodipodi:role="line"
             x="122.70908"
             y="363.49786"
             id="tspan5870-04"
             style="font-size:15px;font-weight:bold;line-height:100%;fill:#000000;fill-opacity:0.29803922">    -</tspan><tspan
             sodipodi:role="line"
             x="122.70908"
             y="378.49786"
             id="tspan5872-7"
             style="font-size:15px;font-weight:bold;line-height:100%;fill:#000000;fill-opacity:0.29803922">07:00</tspan></text>
      </g>
      <g
         id="g7055">
        <path
           transform="matrix(1.5,0,0,1.5,-487.67595,-633.27348)"
           sodipodi:type="arc"
           style="fill:#ffca00;fill-opacity:1;stroke:#ffffff;stroke-width:3;stroke-miterlimit:10;stroke-opacity:1;stroke-dasharray:none"
           id="tp-slice-5"
           sodipodi:cx="391.07144"
           sodipodi:cy="565.2193"
           sodipodi:rx="131.07143"
           sodipodi:ry="117.85714"
           d="m 456.60715,667.28658 a 131.07143,117.85714 0 0 1 -65.5357,15.78986 l -1e-5,-117.85714 z"
           sodipodi:start="1.0471976"
           sodipodi:end="1.5707963"
           class="tp-slice" />
        <text
           xml:space="preserve"
           style="font-size:40px;font-style:normal;font-weight:normal;line-height:100%;letter-spacing:0px;word-spacing:0px;fill:#000000;fill-opacity:0.29803922;stroke:none;font-family:Sans"
           x="18.60778"
           y="399.80444"
           id="text5866-66"
           sodipodi:linespacing="100%"
           transform="matrix(0.96592583,-0.25881905,0.25881905,0.96592583,0,0)"><tspan
             sodipodi:role="line"
             id="tspan5868-56"
             x="18.60778"
             y="399.80444"
             style="font-size:15px;font-weight:bold;line-height:100%;fill:#000000;fill-opacity:0.29803922">05:00</tspan><tspan
             sodipodi:role="line"
             x="18.60778"
             y="414.80444"
             id="tspan5870-40"
             style="font-size:15px;font-weight:bold;line-height:100%;fill:#000000;fill-opacity:0.29803922">    -</tspan><tspan
             sodipodi:role="line"
             x="18.60778"
             y="429.80444"
             id="tspan5872-94"
             style="font-size:15px;font-weight:bold;line-height:100%;fill:#000000;fill-opacity:0.29803922">06:00</tspan></text>
      </g>
      <g
         id="g7048">
        <path
           transform="matrix(1.5,0,0,1.5,-487.67595,-633.27348)"
           sodipodi:type="arc"
           style="fill:#a4e80c;fill-opacity:1;stroke:#ffffff;stroke-width:3;stroke-miterlimit:10;stroke-opacity:1;stroke-dasharray:none"
           id="tp-slice-4"
           sodipodi:cx="391.07144"
           sodipodi:cy="565.2193"
           sodipodi:rx="131.07143"
           sodipodi:ry="117.85714"
           d="m 504.58263,624.14787 a 131.07143,117.85714 0 0 1 -47.97548,43.13871 L 391.07144,565.2193 z"
           sodipodi:start="0.52359878"
           sodipodi:end="1.0471976"
           class="tp-slice" />
        <text
           xml:space="preserve"
           style="font-size:40px;font-style:normal;font-weight:normal;line-height:100%;letter-spacing:0px;word-spacing:0px;fill:#000000;fill-opacity:0.29803922;stroke:none;font-family:Sans"
           x="-96.667633"
           y="397.13144"
           id="text5866-4"
           sodipodi:linespacing="100%"
           transform="matrix(0.70710678,-0.70710678,0.70710678,0.70710678,0,0)"><tspan
             sodipodi:role="line"
             id="tspan5868-9"
             x="-96.667633"
             y="397.13144"
             style="font-size:15px;font-weight:bold;line-height:100%;fill:#000000;fill-opacity:0.29803922">04:00</tspan><tspan
             sodipodi:role="line"
             x="-96.667633"
             y="412.13144"
             id="tspan5870-08"
             style="font-size:15px;font-weight:bold;line-height:100%;fill:#000000;fill-opacity:0.29803922">    -</tspan><tspan
             sodipodi:role="line"
             x="-96.667633"
             y="427.13144"
             id="tspan5872-22"
             style="font-size:15px;font-weight:bold;line-height:100%;fill:#000000;fill-opacity:0.29803922">05:00</tspan></text>
      </g>
      <g
         id="g7041">
        <path
           sodipodi:type="arc"
           style="fill:#00ff47;fill-opacity:1;stroke:#ffffff;stroke-width:3;stroke-miterlimit:10;stroke-opacity:1;stroke-dasharray:none"
           id="tp-slice-3"
           sodipodi:cx="391.07144"
           sodipodi:cy="565.2193"
           sodipodi:rx="131.07143"
           sodipodi:ry="117.85714"
           d="m 522.14287,565.2193 a 131.07143,117.85714 0 0 1 -17.56024,58.92857 L 391.07144,565.2193 z"
           sodipodi:start="0"
           sodipodi:end="0.52359878"
           transform="matrix(1.5,0,0,1.5,-487.67595,-633.27348)"
           class="tp-slice" />
        <text
           xml:space="preserve"
           style="font-size:40px;font-style:normal;font-weight:normal;line-height:100%;letter-spacing:0px;word-spacing:0px;fill:#000000;fill-opacity:0.29803922;stroke:none;font-family:Sans"
           x="-200.90358"
           y="335.38733"
           id="text5866-6"
           sodipodi:linespacing="100%"
           transform="matrix(0.25881905,-0.96592583,0.96592583,0.25881905,0,0)"><tspan
             sodipodi:role="line"
             id="tspan5868-32"
             x="-200.90358"
             y="335.38733"
             style="font-size:15px;font-weight:bold;line-height:100%;fill:#000000;fill-opacity:0.29803922">03:00</tspan><tspan
             sodipodi:role="line"
             x="-200.90358"
             y="350.38733"
             id="tspan5870-8"
             style="font-size:15px;font-weight:bold;line-height:100%;fill:#000000;fill-opacity:0.29803922">    -</tspan><tspan
             sodipodi:role="line"
             x="-200.90358"
             y="365.38733"
             id="tspan5872-99"
             style="font-size:15px;font-weight:bold;line-height:100%;fill:#000000;fill-opacity:0.29803922">04:00</tspan></text>
      </g>
      <g
         id="g7034">
        <path
           transform="matrix(1.5,0,0,1.5,-487.67595,-633.27348)"
           sodipodi:type="arc"
           style="fill:#00ff47;fill-opacity:1;stroke:#ffffff;stroke-width:3;stroke-miterlimit:10;stroke-opacity:1;stroke-dasharray:none"
           id="tp-slice-2"
           sodipodi:cx="391.07144"
           sodipodi:cy="565.2193"
           sodipodi:rx="131.07143"
           sodipodi:ry="117.85714"
           d="m 504.58262,506.29073 a 131.07143,117.85714 0 0 1 17.56025,58.92857 l -131.07143,0 z"
           sodipodi:start="5.7595865"
           sodipodi:end="6.2831853"
           class="tp-slice" />
        <text
           xml:space="preserve"
           style="font-size:40px;font-style:normal;font-weight:normal;line-height:100%;letter-spacing:0px;word-spacing:0px;fill:#000000;fill-opacity:0.2984293;stroke:none;font-family:Sans"
           x="214.02739"
           y="-243.52356"
           id="text5866-00"
           sodipodi:linespacing="100%"
           inkscape:transform-center-y="-44.682793"
           transform="matrix(0.25881905,0.96592583,-0.96592583,0.25881905,0,0)"
           inkscape:transform-center-x="-169.99641"><tspan
             sodipodi:role="line"
             id="tspan5868-6"
             x="214.02739"
             y="-243.52356"
             style="font-size:15px;font-weight:bold;line-height:100%;fill:#000000;fill-opacity:0.2984293">02:00</tspan><tspan
             sodipodi:role="line"
             x="214.02739"
             y="-228.52356"
             id="tspan5870-41"
             style="font-size:15px;font-weight:bold;line-height:100%;fill:#000000;fill-opacity:0.2984293">    -</tspan><tspan
             sodipodi:role="line"
             x="214.02739"
             y="-213.52356"
             id="tspan5872-8"
             style="font-size:15px;font-weight:bold;line-height:100%;fill:#000000;fill-opacity:0.2984293">03:00</tspan></text>
      </g>
      <g
         id="g7027">
        <path
           transform="matrix(1.5,0,0,1.5,-487.67595,-633.27347)"
           sodipodi:type="arc"
           style="fill:#00ff47;fill-opacity:1;stroke:#ffffff;stroke-width:3;stroke-miterlimit:10;stroke-opacity:1;stroke-dasharray:none"
           id="tp-slice-1"
           sodipodi:cx="391.07144"
           sodipodi:cy="565.2193"
           sodipodi:rx="131.07143"
           sodipodi:ry="117.85714"
           d="m 456.60716,463.15203 a 131.07143,117.85714 0 0 1 47.97546,43.1387 L 391.07144,565.2193 z"
           sodipodi:start="5.2359878"
           sodipodi:end="5.7595865"
           class="tp-slice" />
        <text
           xml:space="preserve"
           style="font-size:40px;font-style:normal;font-weight:normal;line-height:100%;letter-spacing:0px;word-spacing:0px;fill:#000000;fill-opacity:0.2984293;stroke:none;font-family:Sans"
           x="207.85303"
           y="-113.58002"
           id="text5866-7"
           sodipodi:linespacing="100%"
           inkscape:transform-center-y="-123.70992"
           transform="matrix(0.70710678,0.70710678,-0.70710678,0.70710678,0,0)"
           inkscape:transform-center-x="-124.63178"><tspan
             sodipodi:role="line"
             id="tspan5868-5"
             x="207.85303"
             y="-113.58002"
             style="font-size:15px;font-weight:bold;line-height:100%;fill:#000000;fill-opacity:0.2984293">01:00</tspan><tspan
             sodipodi:role="line"
             x="207.85303"
             y="-98.580017"
             id="tspan5870-4"
             style="font-size:15px;font-weight:bold;line-height:100%;fill:#000000;fill-opacity:0.2984293">    -</tspan><tspan
             sodipodi:role="line"
             x="207.85303"
             y="-83.580017"
             id="tspan5872-3"
             style="font-size:15px;font-weight:bold;line-height:100%;fill:#000000;fill-opacity:0.2984293">02:00</tspan></text>
      </g>
      <g
         id="g7020">
        <path
           transform="matrix(1.5,0,0,1.5,-487.67595,-633.27348)"
           sodipodi:type="arc"
           style="fill:#00ff47;fill-opacity:1;stroke:#ffffff;stroke-width:3;stroke-miterlimit:10;stroke-opacity:1;stroke-dasharray:none"
           id="tp-slice-12"
           sodipodi:cx="391.07144"
           sodipodi:cy="565.2193"
           sodipodi:rx="131.07143"
           sodipodi:ry="117.85714"
           d="m 391.07144,447.36216 a 131.07143,117.85714 0 0 1 65.53572,15.78987 L 391.07144,565.2193 z"
           sodipodi:start="4.712389"
           sodipodi:end="5.2359878"
           class="tp-slice" />
        <text
           xml:space="preserve"
           style="font-size:40px;font-style:normal;font-weight:normal;line-height:100%;letter-spacing:0px;word-spacing:0px;fill:#000000;fill-opacity:0.2984293;stroke:none;font-family:Sans"
           x="131.26897"
           y="-4.9387574"
           id="text5866-0"
           sodipodi:linespacing="100%"
           inkscape:transform-center-y="-169.58906"
           transform="matrix(0.96592583,0.25881905,-0.25881905,0.96592583,0,0)"
           inkscape:transform-center-x="-45.87217"><tspan
             sodipodi:role="line"
             id="tspan5868-2"
             x="131.26897"
             y="-4.9387574"
             style="font-size:15px;font-weight:bold;line-height:100%;fill:#000000;fill-opacity:0.2984293">12:00</tspan><tspan
             sodipodi:role="line"
             x="131.26897"
             y="10.061242"
             id="tspan5870-0"
             style="font-size:15px;font-weight:bold;line-height:100%;fill:#000000;fill-opacity:0.2984293">   -</tspan><tspan
             sodipodi:role="line"
             x="131.26897"
             y="25.061243"
             id="tspan5872-6"
             style="font-size:15px;font-weight:bold;line-height:100%;fill:#000000;fill-opacity:0.2984293">01:00</tspan></text>
      </g>
    </g>
    <g
       id="g7422">
      <path
         transform="matrix(1.5,0,0,1.5,-116.42593,-410.41636)"
         d="m 194.28571,416.64789 c 0,28.00873 -22.70556,50.71428 -50.71428,50.71428 -28.00873,0 -50.71429,-22.70555 -50.71429,-50.71428 0,-28.00873 22.70556,-50.71429 50.71429,-50.71429 28.00872,0 50.71428,22.70556 50.71428,50.71429 z"
         sodipodi:ry="50.714287"
         sodipodi:rx="50.714287"
         sodipodi:cy="416.64789"
         sodipodi:cx="143.57143"
         id="path4098"
         style="fill:#ffffff;fill-opacity:1;stroke:#ffffff;stroke-width:7;stroke-miterlimit:10;stroke-opacity:1;stroke-dasharray:none"
         sodipodi:type="arc" />
      <g
         id="g7393">
        <g
           style="font-size:13.81565094px;font-style:normal;font-weight:normal;line-height:125%;letter-spacing:0px;word-spacing:0px;fill:#000000;fill-opacity:1;stroke:none;font-family:Sans"
           id="text4114">
          <path
             d="m 91.689487,152.50527 2.293614,0 0,-6.50982 -2.354328,0.48571 0,-1.76743 2.340836,-0.48571 2.469008,0 0,8.27725 2.293614,0 0,1.79441 -7.042744,0 0,-1.79441"
             style="font-weight:bold"
             id="path5811"
             inkscape:connector-curvature="0" />
          <path
             d="m 103.65675,152.39059 4.43208,0 0,1.90909 -7.31933,0 0,-1.90909 3.67653,-3.24479 c 0.32829,-0.29682 0.57115,-0.58689 0.72856,-0.87023 0.1574,-0.28332 0.2361,-0.57789 0.2361,-0.88371 0,-0.47221 -0.15965,-0.85223 -0.47896,-1.14006 -0.31481,-0.28782 -0.73531,-0.43173 -1.26148,-0.43174 -0.40476,10e-6 -0.84774,0.0877 -1.32895,0.26309 -0.48121,0.1709 -0.99615,0.42725 -1.54482,0.76903 l 0,-2.21266 c 0.58465,-0.19337 1.16255,-0.33953 1.73371,-0.43848 0.57115,-0.10343 1.13106,-0.15515 1.67973,-0.15516 1.20527,1e-5 2.1407,0.26535 2.8063,0.79602 0.67009,0.53069 1.00514,1.27049 1.00515,2.21941 -1e-5,0.54867 -0.14168,1.06136 -0.425,1.53807 -0.28333,0.47222 -0.87922,1.10633 -1.78767,1.90235 l -2.15195,1.88886"
             style="font-weight:bold"
             id="path5813"
             inkscape:connector-curvature="0" />
        </g>
        <g
           style="font-size:13.81565094px;font-style:normal;font-weight:normal;line-height:125%;letter-spacing:0px;word-spacing:0px;fill:#000000;fill-opacity:1;stroke:none;font-family:Sans"
           id="text4114-7">
          <path
             d="m 170.43518,214.25187 c 0.67909,0.1754 1.19402,0.48122 1.54482,0.91745 0.35528,0.43174 0.53292,0.98266 0.53293,1.65275 -1e-5,0.9984 -0.38228,1.75844 -1.14681,2.28012 -0.76454,0.51719 -1.87987,0.77578 -3.34598,0.77578 -0.51719,0 -1.03662,-0.0427 -1.55831,-0.12817 -0.51718,-0.081 -1.02987,-0.20462 -1.53807,-0.37102 l 0,-2.00354 c 0.48571,0.24285 0.96692,0.42724 1.44363,0.55316 0.48121,0.12143 0.95342,0.18214 1.41665,0.18214 0.68808,0 1.21426,-0.11917 1.57854,-0.35753 0.36877,-0.23836 0.55316,-0.58015 0.55317,-1.02538 -1e-5,-0.45872 -0.18889,-0.80501 -0.56666,-1.03887 -0.37328,-0.23836 -0.92644,-0.35753 -1.6595,-0.35754 l -1.03887,0 0,-1.67299 1.09284,0 c 0.6521,1e-5 1.13781,-0.10118 1.45712,-0.30356 0.3193,-0.20687 0.47895,-0.51943 0.47896,-0.93769 -1e-5,-0.38676 -0.15516,-0.68582 -0.46547,-0.8972 -0.31032,-0.21137 -0.7488,-0.31705 -1.31545,-0.31706 -0.41825,1e-5 -0.841,0.0472 -1.26824,0.14166 -0.42724,0.0944 -0.85223,0.23387 -1.27498,0.41825 l 0,-1.90235 c 0.51269,-0.1439 1.02088,-0.25184 1.52458,-0.32381 0.50369,-0.0719 0.99839,-0.10792 1.48411,-0.10793 1.3087,1e-5 2.28686,0.21588 2.93447,0.64761 0.6521,0.42725 0.97815,1.07261 0.97816,1.93608 -10e-6,0.58915 -0.15516,1.07261 -0.46547,1.45037 -0.31032,0.37328 -0.76904,0.63637 -1.37617,0.78927"
             style="font-weight:bold"
             id="path5847"
             inkscape:connector-curvature="0" />
        </g>
        <g
           style="font-size:13.81565094px;font-style:normal;font-weight:normal;line-height:125%;letter-spacing:0px;word-spacing:0px;fill:#000000;fill-opacity:1;stroke:none;font-family:Sans"
           id="text4114-7-3">
          <path
             d="m 99.561962,282.88443 c -0.45423,0 -0.796024,0.14841 -1.025381,0.44523 -0.224868,0.29232 -0.3373,0.73306 -0.337296,1.3222 -4e-6,0.58914 0.112428,1.03213 0.337296,1.32894 0.229357,0.29233 0.571151,0.43849 1.025381,0.43849 0.458718,0 0.800508,-0.14616 1.025378,-0.43849 0.22936,-0.29681 0.34404,-0.7398 0.34404,-1.32894 0,-0.58914 -0.11468,-1.02988 -0.34404,-1.3222 -0.22487,-0.29682 -0.56666,-0.44523 -1.025378,-0.44523 m 3.211058,-4.83683 0,1.86187 c -0.42725,-0.20237 -0.82975,-0.35078 -1.20752,-0.44523 -0.37778,-0.0989 -0.74655,-0.1484 -1.10633,-0.14841 -0.773538,10e-6 -1.376173,0.21588 -1.807908,0.64761 -0.431743,0.42725 -0.68359,1.06361 -0.755543,1.9091 0.296817,-0.22036 0.618372,-0.38451 0.964667,-0.49246 0.346286,-0.11242 0.724057,-0.16864 1.133315,-0.16864 1.029869,0 1.859619,0.30132 2.489249,0.90395 0.6341,0.60264 0.95116,1.39191 0.95117,2.36782 -10e-6,1.07935 -0.35304,1.94507 -1.05911,2.59718 -0.70608,0.64761 -1.65276,0.97141 -2.840032,0.97141 -1.308713,0 -2.322849,-0.44073 -3.042412,-1.3222 -0.715069,-0.88596 -1.072602,-2.1407 -1.072601,-3.76422 -1e-6,-1.66399 0.418246,-2.97045 1.254741,-3.91939 0.840989,-0.95341 1.992292,-1.43012 3.453914,-1.43013 0.46321,10e-6 0.91294,0.036 1.34918,0.10793 0.43623,0.072 0.86797,0.17991 1.29522,0.32381"
             style="font-weight:bold"
             id="path5838"
             inkscape:connector-curvature="0" />
        </g>
        <g
           style="font-size:13.81565094px;font-style:normal;font-weight:normal;line-height:125%;letter-spacing:0px;word-spacing:0px;fill:#000000;fill-opacity:1;stroke:none;font-family:Sans"
           id="text4114-7-6">
          <path
             d="m 27.875268,219.36195 0,-1.86188 c 0.413748,0.19339 0.809508,0.33955 1.187282,0.43849 0.377769,0.0944 0.751043,0.14166 1.119823,0.14166 0.773529,0 1.376164,-0.21362 1.807908,-0.64086 0.431733,-0.43174 0.685829,-1.07035 0.762289,-1.91584 -0.305821,0.22487 -0.631874,0.39351 -0.978159,0.50594 -0.346295,0.11244 -0.721818,0.16865 -1.126569,0.16865 -1.029881,0 -1.861877,-0.29906 -2.495991,-0.89721 -0.629621,-0.60263 -0.94443,-1.39415 -0.94443,-2.37456 0,-1.08384 0.350787,-1.95181 1.052364,-2.60393 0.706071,-0.65209 1.650499,-0.97815 2.833288,-0.97816 1.313201,1e-5 2.329585,0.44299 3.049157,1.32895 0.719557,0.88597 1.079339,2.13846 1.079348,3.75748 -9e-6,1.664 -0.420504,2.9727 -1.261487,3.92613 -0.840999,0.94892 -1.994551,1.42339 -3.460659,1.42339 -0.472218,0 -0.924195,-0.036 -1.355931,-0.10794 -0.431741,-0.0675 -0.854485,-0.1709 -1.268233,-0.31031 m 3.204313,-4.85032 c 0.454221,0 0.796014,-0.14616 1.025381,-0.43849 0.229355,-0.29681 0.344036,-0.73979 0.344042,-1.32894 -6e-6,-0.58464 -0.114687,-1.02537 -0.344042,-1.3222 -0.229367,-0.29682 -0.57116,-0.44523 -1.025381,-0.44523 -0.454229,0 -0.796022,0.14841 -1.02538,0.44523 -0.229365,0.29683 -0.344045,0.73756 -0.344042,1.3222 -3e-6,0.58915 0.114677,1.03213 0.344042,1.32894 0.229358,0.29233 0.571151,0.43849 1.02538,0.43849"
             style="font-weight:bold"
             id="path5829"
             inkscape:connector-curvature="0" />
        </g>
        <g
           style="font-size:13.81565094px;font-style:normal;font-weight:normal;line-height:125%;letter-spacing:0px;word-spacing:0px;fill:#000000;fill-opacity:1;stroke:none;font-family:Sans"
           id="text4114-4">
          <path
             d="m 134.21304,164.80722 2.22615,0 0,-7.68361 -2.42178,0.48571 0,-1.24125 2.40829,-0.48571 1.36268,0 0,8.92486 2.22615,0 0,1.14681 -5.80149,0 0,-1.14681"
             id="path5816"
             inkscape:connector-curvature="0" />
        </g>
        <g
           style="font-size:13.81565094px;font-style:normal;font-weight:normal;line-height:125%;letter-spacing:0px;word-spacing:0px;fill:#000000;fill-opacity:1;stroke:none;font-family:Sans"
           id="text4114-4-0">
          <path
             d="m 157.49513,188.21611 4.75587,0 0,1.14681 -6.39513,0 0,-1.14681 c 0.51718,-0.53518 1.22101,-1.25249 2.11147,-2.15195 0.89496,-0.90395 1.45712,-1.48635 1.68648,-1.7472 0.43623,-0.49019 0.7398,-0.90394 0.9107,-1.24125 0.17539,-0.34178 0.26309,-0.67683 0.26309,-1.00514 0,-0.53517 -0.18889,-0.9714 -0.56665,-1.30871 -0.37328,-0.33728 -0.86124,-0.50593 -1.46387,-0.50594 -0.42725,1e-5 -0.87922,0.0742 -1.35593,0.22261 -0.47222,0.14842 -0.97816,0.37329 -1.51783,0.6746 l 0,-1.37617 c 0.54866,-0.22036 1.06135,-0.38676 1.53807,-0.4992 0.47671,-0.11242 0.91294,-0.16864 1.30871,-0.16865 1.04336,1e-5 1.87536,0.26085 2.49599,0.78253 0.62062,0.52169 0.93093,1.21877 0.93094,2.09123 -10e-6,0.41376 -0.0787,0.80727 -0.23611,1.18054 -0.15292,0.36878 -0.434,0.80502 -0.84324,1.30871 -0.11244,0.13043 -0.46997,0.5082 -1.0726,1.13332 -0.60264,0.62062 -1.45263,1.49085 -2.54996,2.61067"
             id="path5850"
             inkscape:connector-curvature="0" />
        </g>
        <g
           style="font-size:13.81565094px;font-style:normal;font-weight:normal;line-height:125%;letter-spacing:0px;word-spacing:0px;fill:#000000;fill-opacity:1;stroke:none;font-family:Sans"
           id="text4114-4-0-8">
          <path
             d="m 160.50226,240.63701 -3.44042,5.3765 3.44042,0 0,-5.3765 m -0.35753,-1.18728 1.71346,0 0,6.56378 1.43688,0 0,1.13332 -1.43688,0 0,2.37456 -1.35593,0 0,-2.37456 -4.54675,0 0,-1.31546 4.18922,-6.38164"
             id="path5844"
             inkscape:connector-curvature="0" />
        </g>
        <g
           style="font-size:13.81565094px;font-style:normal;font-weight:normal;line-height:125%;letter-spacing:0px;word-spacing:0px;fill:#000000;fill-opacity:1;stroke:none;font-family:Sans"
           id="text4114-4-0-4">
          <path
             d="m 134.76308,267.55715 5.34952,0 0,1.14681 -4.10152,0 0,2.46901 c 0.19787,-0.0675 0.39575,-0.11693 0.59364,-0.14841 0.19788,-0.036 0.39576,-0.054 0.59364,-0.054 1.12431,1e-5 2.01478,0.30807 2.67139,0.92419 0.65659,0.61613 0.98489,1.45038 0.9849,2.50274 -1e-5,1.08384 -0.3373,1.92708 -1.01189,2.52972 -0.6746,0.59814 -1.62577,0.89721 -2.85352,0.89721 -0.42275,0 -0.85449,-0.036 -1.29522,-0.10794 -0.43624,-0.072 -0.88822,-0.17989 -1.35593,-0.3238 l 0,-1.36943 c 0.40475,0.22037 0.823,0.38452 1.25474,0.49246 0.43174,0.10793 0.88821,0.1619 1.36942,0.1619 0.77803,0 1.39415,-0.20463 1.84839,-0.61388 0.45421,-0.40925 0.68133,-0.96466 0.68133,-1.66624 0,-0.70157 -0.22712,-1.25699 -0.68133,-1.66625 -0.45424,-0.40924 -1.07036,-0.61387 -1.84839,-0.61387 -0.36428,0 -0.72856,0.0405 -1.09284,0.12142 -0.35978,0.081 -0.72856,0.20688 -1.10633,0.37777 l 0,-5.05944"
             id="path5841"
             inkscape:connector-curvature="0" />
        </g>
        <g
           style="font-size:13.81565094px;font-style:normal;font-weight:normal;line-height:125%;letter-spacing:0px;word-spacing:0px;fill:#000000;fill-opacity:1;stroke:none;font-family:Sans"
           id="text4114-4-0-9">
          <path
             d="m 56.779769,264.17757 6.476086,0 0,0.58015 -3.65629,9.49152 -1.42339,0 3.440421,-8.92486 -4.836827,0 0,-1.14681"
             id="path5835"
             inkscape:connector-curvature="0" />
        </g>
        <g
           style="font-size:13.81565094px;font-style:normal;font-weight:normal;line-height:125%;letter-spacing:0px;word-spacing:0px;fill:#000000;fill-opacity:1;stroke:none;font-family:Sans"
           id="text4114-4-0-92">
          <path
             d="m 39.02244,245.26881 c -0.647612,0 -1.158053,0.17315 -1.531324,0.51943 -0.36878,0.3463 -0.553168,0.82301 -0.553166,1.43014 -2e-6,0.60713 0.184386,1.08385 0.553166,1.43013 0.373271,0.3463 0.883712,0.51944 1.531324,0.51944 0.647604,0 1.158045,-0.17314 1.531325,-0.51944 0.373268,-0.35078 0.559905,-0.82749 0.559911,-1.43013 -6e-6,-0.60713 -0.186643,-1.08384 -0.559911,-1.43014 -0.368783,-0.34628 -0.879224,-0.51943 -1.531325,-0.51943 m -1.362676,-0.58015 c -0.584649,-0.14391 -1.041123,-0.416 -1.369423,-0.81626 -0.323805,-0.40025 -0.485707,-0.88821 -0.485706,-1.46386 -10e-7,-0.80501 0.285576,-1.44137 0.856732,-1.9091 0.57565,-0.46771 1.362673,-0.70157 2.361073,-0.70158 1.002889,1e-5 1.789912,0.23387 2.361073,0.70158 0.571148,0.46773 0.856725,1.10409 0.856733,1.9091 -8e-6,0.57565 -0.164159,1.06361 -0.492453,1.46386 -0.323811,0.40026 -0.775787,0.67235 -1.35593,0.81626 0.656596,0.15291 1.167037,0.45198 1.531324,0.89721 0.36877,0.44523 0.553158,0.9894 0.553166,1.63251 -8e-6,0.97591 -0.299077,1.72471 -0.897208,2.24639 -0.593647,0.52169 -1.445882,0.78253 -2.556705,0.78253 -1.110832,0 -1.965315,-0.26084 -2.563451,-0.78253 -0.593642,-0.52168 -0.890462,-1.27048 -0.890462,-2.24639 0,-0.64311 0.184388,-1.18728 0.553166,-1.63251 0.368775,-0.44523 0.881465,-0.7443 1.538071,-0.89721 m -0.499199,-2.15195 c -2e-6,0.52169 0.1619,0.92869 0.485707,1.22101 0.328298,0.29233 0.78702,0.43849 1.376168,0.43848 0.584642,1e-5 1.041116,-0.14615 1.369423,-0.43848 0.332792,-0.29232 0.499192,-0.69932 0.499198,-1.22101 -6e-6,-0.52168 -0.166406,-0.92868 -0.499198,-1.22101 -0.328307,-0.29232 -0.784781,-0.43848 -1.369423,-0.43849 -0.589148,1e-5 -1.04787,0.14617 -1.376168,0.43849 -0.323807,0.29233 -0.485709,0.69933 -0.485707,1.22101"
             id="path5832"
             inkscape:connector-curvature="0" />
        </g>
        <g
           style="font-size:13.81565094px;font-style:normal;font-weight:normal;line-height:125%;letter-spacing:0px;word-spacing:0px;fill:#000000;fill-opacity:1;stroke:none;font-family:Sans"
           id="text4114-4-0-0">
          <path
             d="m 35.018488,185.79555 2.226154,0 0,-7.68361 -2.421786,0.48571 0,-1.24125 2.408295,-0.48571 1.362676,0 0,8.92486 2.226155,0 0,1.1468 -5.801494,0 0,-1.1468"
             id="path5824"
             inkscape:connector-curvature="0" />
          <path
             d="m 46.493304,177.7679 c -0.70158,1e-5 -1.23001,0.3463 -1.585292,1.03887 -0.350791,0.68809 -0.526185,1.72471 -0.526182,3.10987 -3e-6,1.38067 0.175391,2.41729 0.526182,3.10987 0.355282,0.68809 0.883712,1.03213 1.585292,1.03213 0.706068,0 1.234498,-0.34404 1.585292,-1.03213 0.355278,-0.69258 0.532921,-1.7292 0.532927,-3.10987 -6e-6,-1.38516 -0.177649,-2.42178 -0.532927,-3.10987 -0.350794,-0.69257 -0.879224,-1.03886 -1.585292,-1.03887 m 0,-1.07935 c 1.128812,1e-5 1.990041,0.44749 2.583688,1.34244 0.598131,0.89047 0.8972,2.18568 0.897208,3.88565 -8e-6,1.69548 -0.299077,2.99069 -0.897208,3.88565 -0.593647,0.89046 -1.454876,1.33569 -2.583688,1.33569 -1.128822,0 -1.992299,-0.44523 -2.590435,-1.33569 -0.593642,-0.89496 -0.890463,-2.19017 -0.890462,-3.88565 -1e-6,-1.69997 0.29682,-2.99518 0.890462,-3.88565 0.598136,-0.89495 1.461613,-1.34243 2.590435,-1.34244"
             id="path5826"
             inkscape:connector-curvature="0" />
        </g>
        <g
           style="font-size:13.81565094px;font-style:normal;font-weight:normal;line-height:125%;letter-spacing:0px;word-spacing:0px;fill:#000000;fill-opacity:1;stroke:none;font-family:Sans"
           id="text4114-4-0-43">
          <path
             d="m 58.352991,162.46104 2.226155,0 0,-7.6836 -2.421787,0.4857 0,-1.24125 2.408295,-0.4857 1.362676,0 0,8.92485 2.226155,0 0,1.14681 -5.801494,0 0,-1.14681"
             id="path5819"
             inkscape:connector-curvature="0" />
          <path
             d="m 67.149675,162.46104 2.226155,0 0,-7.6836 -2.421787,0.4857 0,-1.24125 2.408295,-0.4857 1.362677,0 0,8.92485 2.226154,0 0,1.14681 -5.801494,0 0,-1.14681"
             id="path5821"
             inkscape:connector-curvature="0" />
        </g>
      </g>
    </g>
    <text
       xml:space="preserve"
       style="font-size:60px;font-style:normal;font-weight:normal;line-height:125%;letter-spacing:0px;word-spacing:0px;fill:#000000;fill-opacity:1;stroke:none;font-family:Sans"
       x="344.13428"
       y="64.883362"
       id="text5466"
       sodipodi:linespacing="125%"><tspan
         y="64.883362"
         x="344.13428"
         sodipodi:role="line"
         id="tspan5468"
         style="font-size:18px"><tspan
   style="font-size:18px;font-weight:bold"
   id="tp-train-count">22 trains</tspan> pass through this </tspan><tspan
         y="87.383362"
         x="344.13428"
         sodipodi:role="line"
         style="font-size:18px"
         id="tspan5589">route between 1:00 and 2:00.    </tspan><tspan
         y="109.88336"
         x="344.13428"
         sodipodi:role="line"
         style="font-size:18px"
         id="tspan5595"><tspan
           style="font-weight:bold"
           id="tspan5601"></tspan></tspan><tspan
         y="132.38336"
         x="344.13428"
         sodipodi:role="line"
         style="font-size:18px"
         id="tspan5617"><tspan
   style="font-weight:bold"
   id="tspan5619">Departure </tspan>is usually </tspan><tspan
         y="154.88336"
         x="344.13428"
         sodipodi:role="line"
         style="font-size:18px"
         id="tspan5627">delayed by  <tspan
   style="font-weight:bold"
   id="tp-depdelay">2 minutes</tspan>.   <tspan
   style="font-weight:bold"
   id="tspan5605"></tspan></tspan><tspan
         y="177.38336"
         x="344.13428"
         sodipodi:role="line"
         style="font-size:18px"
         id="tspan5635"><tspan
           style="font-weight:bold"
           id="tspan5637"></tspan></tspan><tspan
         y="199.88336"
         x="344.13428"
         sodipodi:role="line"
         style="font-size:18px"
         id="tspan5643"><tspan
   style="font-weight:bold"
   id="tspan5645">Arrival</tspan> is usually delayed by <tspan
   style="font-weight:bold"
   id="tspan5607"></tspan></tspan><tspan
         y="222.38336"
         x="344.13428"
         sodipodi:role="line"
         style="font-size:18px"
         id="tspan5651"><tspan
   style="font-weight:bold"
   id="tp-arrdelay">half a minute</tspan>.  </tspan><tspan
         y="244.88336"
         x="344.13428"
         sodipodi:role="line"
         style="font-size:18px"
         id="tspan5658"></tspan><tspan
         y="267.38336"
         x="344.13428"
         sodipodi:role="line"
         style="font-size:18px"
         id="tspan5663">The <tspan
   style="font-weight:bold"
   id="tspan5609">travel time </tspan>is around <tspan
   style="font-weight:bold"
   id="tspan5611"></tspan></tspan><tspan
         y="289.88336"
         x="344.13428"
         sodipodi:role="line"
         style="font-size:18px"
         id="tspan5668"><tspan
   style="font-weight:bold"
   id="tp-travel">13 minutes</tspan>.  </tspan><tspan
         y="312.38336"
         x="344.13428"
         sodipodi:role="line"
         style="font-size:18px"
         id="tspan5673"></tspan><tspan
         y="334.88336"
         x="344.13428"
         sodipodi:role="line"
         style="font-size:18px"
         id="tspan5676">The travel time is <tspan
   style="font-weight:bold"
   id="tp-better">1 minute </tspan></tspan><tspan
         y="357.38336"
         x="344.13428"
         sodipodi:role="line"
         style="font-size:18px"
         id="tspan5679"><tspan
   style="font-weight:bold"
   id="tspan5681">better an hour later</tspan>.</tspan></text>
    <text
       xml:space="preserve"
       style="font-size:60px;font-style:normal;font-weight:normal;text-align:center;line-height:125%;letter-spacing:0px;word-spacing:0px;text-anchor:middle;fill:#000000;fill-opacity:1;stroke:none;font-family:Sans"
       x="103.22719"
       y="-40.27338"
       id="text5713"
       sodipodi:linespacing="125%"><tspan
         sodipodi:role="line"
         id="tspan5715"
         style="font-size:24px;font-weight:bold"
         x="107.39906"
         y="-40.27338">Monday  <tspan
   style="font-size:21px;font-weight:bold"
   id="tspan5717"></tspan></tspan><tspan
         sodipodi:role="line"
         style="font-size:24px;font-weight:bold"
         id="tspan5719"
         x="103.22719"
         y="-13.263628"><tspan
           style="font-size:21px;font-weight:bold"
           id="tspan5721">Nørreport - Vanløse</tspan></tspan></text>
  </g>
</svg>
